<svg xmlns="http://www.w3.org/2000/svg" fill="none" viewBox="0 0 196 42" height="42" width="196">
<path fill="#00354B" d="M70.4712 30.9405C71.2829 30.9405 71.3306 30.4857 71.3306 29.5317V14.8757H67.9441C66.8937 14.8757 66.3242 15.5219 66.2526 15.8331H66.1093L66.3481 14.3525H78.7005L78.9393 15.8331H78.796C78.7244 15.5219 78.1037 14.8757 76.9851 14.8757H73.7418V29.5317C73.7418 30.4892 73.7896 30.9405 74.6012 30.9405V31.0841H70.478V30.9405H70.4712ZM109.384 30.7422C108.241 30.26 107.484 29.2958 106.83 28.2973C105.472 26.2319 105.104 23.657 102.805 22.9731C102.771 22.9594 102.737 22.9525 102.7 22.9423C105.445 22.4259 106.833 20.7367 106.833 18.7431C106.833 17.071 105.875 15.6211 103.972 14.8791C103.968 14.8756 103.961 14.8757 103.955 14.8757C103.702 14.7731 103.429 14.691 103.139 14.6192C103.126 14.6158 103.112 14.6089 103.095 14.6089C102.911 14.5611 102.723 14.5234 102.526 14.4892H102.512C102.406 14.4722 102.297 14.455 102.185 14.4414C101.745 14.3798 101.284 14.3525 100.786 14.3525H95.108V14.4961C95.4456 14.5508 95.7389 14.6636 95.964 14.8962C95.9845 14.9167 96.0083 14.944 96.0288 14.9645C96.0731 15.0124 96.1072 15.0637 96.1413 15.1184C96.3289 15.4296 96.4414 15.8741 96.4414 16.5238V28.9333C96.4414 29.0427 96.438 29.1385 96.4312 29.2376C96.3562 30.431 95.8276 30.8209 95.1114 30.9405V31.0841H100.193V30.944C99.6268 30.855 99.1834 30.6054 98.9788 29.9318C98.9754 29.9215 98.9686 29.9113 98.9686 29.901C98.9549 29.8634 98.9481 29.8223 98.9379 29.7847C98.9242 29.7369 98.9174 29.689 98.9072 29.6411C98.8935 29.5693 98.8799 29.4906 98.8731 29.412C98.8697 29.3607 98.8628 29.3128 98.8594 29.2615C98.856 29.1555 98.8492 29.0461 98.8492 28.9299V23.804C99.7802 23.5852 100.541 23.6022 101.383 24.0741C104.081 25.589 104.418 28.7418 105.742 30.1096C105.854 30.2259 105.974 30.3319 106.107 30.431C106.594 30.7867 107.116 30.9508 107.655 31.026C108.374 31.1252 109.404 31.0568 110.161 31.0568H110.472V30.9611C110.083 30.9645 109.722 30.8824 109.384 30.7422ZM102.041 22.8123C101.223 22.6995 100.38 22.7576 99.6131 23.0004C99.521 23.0278 99.4324 23.0551 99.3471 23.0962C99.18 23.1577 99.0129 23.233 98.8526 23.315V14.8722H100.783C101.093 14.8722 101.383 14.903 101.659 14.9577C103.6 15.3544 104.493 16.6709 104.493 18.7397C104.493 20.6581 103.736 22.2755 102.075 22.8158C102.062 22.8158 102.055 22.8123 102.041 22.8123ZM58.8315 30.773C61.1199 30.773 62.7433 29.5043 62.7433 27.5928C62.7433 22.9799 53.2555 23.91 53.2555 18.5311C53.2555 15.9733 55.4245 14.2054 58.4291 14.2054C60.3833 14.2054 62.2453 14.9475 63.722 15.9015V17.2625H63.5788C62.1942 15.5903 60.4071 14.6568 58.5007 14.6568C56.3556 14.6568 55.0187 15.8057 55.0187 17.3821C55.0187 21.66 64.7452 20.7538 64.7452 26.3481C64.7452 29.1932 62.2419 31.2244 58.6883 31.2244C56.7103 31.2244 54.8959 30.602 53.1327 29.7916V28.0476H53.276C54.1593 29.6514 56.6864 30.773 58.8315 30.773ZM89.607 29.4257L87.8131 25.0248H81.4664L79.6486 29.4018C79.3178 30.2053 79.2223 30.9405 80.0954 30.9405V31.0807H77.7354V30.9405C78.3493 30.9405 78.796 29.9694 79.0791 29.3094L85.2621 14.3832H85.7567L92.0318 29.4291C92.5263 30.6123 92.765 30.944 93.471 30.944V31.0841H88.9897V30.944C89.9617 30.9405 89.9378 30.2327 89.607 29.4257ZM87.6017 24.505L84.6756 17.2898L81.6778 24.505H87.6017ZM191.933 10.7722C191.486 13.5386 191.121 13.9011 188.365 14.349C191.124 14.797 191.486 15.1629 191.933 17.9259C192.379 15.1595 192.744 14.797 195.5 14.349C192.744 13.9011 192.379 13.5386 191.933 10.7722ZM180.153 30.7422C179.011 30.26 178.254 29.2958 177.599 28.2973C176.241 26.2319 175.873 23.657 173.575 22.9731C173.54 22.9594 173.506 22.9525 173.469 22.9423C176.214 22.4259 177.602 20.7367 177.602 18.7431C177.602 17.071 176.644 15.6211 174.741 14.8791C174.737 14.8756 174.731 14.8757 174.724 14.8757C174.471 14.7731 174.199 14.691 173.909 14.6192C173.895 14.6158 173.881 14.6089 173.864 14.6089C173.68 14.5611 173.493 14.5234 173.295 14.4892H173.281C173.176 14.4722 173.066 14.455 172.954 14.4414C172.514 14.3798 172.053 14.3525 171.556 14.3525H165.877V14.4961C166.215 14.5508 166.508 14.6636 166.733 14.8962C166.754 14.9167 166.778 14.944 166.798 14.9645C166.842 15.0124 166.876 15.0637 166.911 15.1184C167.098 15.4296 167.211 15.8741 167.211 16.5238V28.9333C167.211 29.0427 167.207 29.1385 167.2 29.2376C167.125 30.431 166.597 30.8209 165.881 30.9405V31.0841H170.962V30.944C170.396 30.855 169.953 30.6054 169.748 29.9318C169.745 29.9215 169.738 29.9113 169.738 29.901C169.724 29.8634 169.717 29.8223 169.707 29.7847C169.693 29.7369 169.687 29.689 169.676 29.6411C169.663 29.5693 169.649 29.4906 169.642 29.412C169.639 29.3607 169.632 29.3128 169.629 29.2615C169.625 29.1555 169.618 29.0461 169.618 28.9299V23.804C170.549 23.5852 171.31 23.6022 172.152 24.0741C174.85 25.589 175.188 28.7418 176.511 30.1096C176.623 30.2259 176.743 30.3319 176.876 30.431C177.363 30.7867 177.885 30.9508 178.424 31.026C179.144 31.1252 180.174 31.0568 180.931 31.0568H181.241V30.9611C180.852 30.9645 180.487 30.8824 180.153 30.7422ZM172.811 22.8123C171.992 22.6995 171.15 22.7576 170.382 23.0004C170.29 23.0278 170.202 23.0551 170.116 23.0962C169.949 23.1577 169.782 23.233 169.622 23.315V14.8722H171.552C171.863 14.8722 172.152 14.903 172.429 14.9577C174.369 15.3544 175.263 16.6709 175.263 18.7397C175.263 20.6581 174.506 22.2755 172.845 22.8158C172.831 22.8158 172.824 22.8123 172.811 22.8123ZM162.801 22.8123C162.801 27.6886 159.558 31.2278 155.076 31.2278C150.571 31.2278 147.328 27.6646 147.328 22.7405C147.328 17.8164 150.571 14.2054 155.005 14.2054C159.462 14.2054 162.801 17.8643 162.801 22.8123ZM149.879 22.6927C149.879 27.6168 151.905 30.773 155.1 30.773C158.248 30.773 160.25 27.6886 160.25 22.8123C160.25 17.8404 158.177 14.6602 155.029 14.6602C151.881 14.6602 149.879 17.7925 149.879 22.6927ZM137.728 30.9405C138.539 30.9405 138.587 30.4857 138.587 29.5317V14.8757H135.201C134.15 14.8757 133.581 15.5219 133.509 15.8331H133.366L133.605 14.3525H145.957L146.196 15.8331H146.053C145.981 15.5219 145.36 14.8757 144.242 14.8757H140.998V29.5317C140.998 30.4892 141.046 30.9405 141.858 30.9405V31.0841H137.735V30.9405H137.728ZM126.091 30.773C128.38 30.773 130.003 29.5043 130.003 27.5928C130.003 22.9799 120.515 23.91 120.515 18.5311C120.515 15.9733 122.684 14.2054 125.689 14.2054C127.643 14.2054 129.505 14.9475 130.982 15.9015V17.2625H130.839C129.454 15.5903 127.667 14.6568 125.761 14.6568C123.616 14.6568 122.279 15.8057 122.279 17.3821C122.279 21.66 132.005 20.7538 132.005 26.3481C132.005 29.1932 129.502 31.2244 125.948 31.2244C123.97 31.2244 122.156 30.602 120.393 29.7916V28.0476H120.536C121.419 29.6514 123.946 30.773 126.091 30.773ZM188.908 29.8702C188.904 29.7642 188.904 29.6514 188.904 29.8087V24.3819L184.137 16.0007C183.707 15.2586 183.922 14.4961 184.829 14.4961V14.3525H179.989V14.4961C180.586 14.4961 181.088 15.1424 181.586 16.0246L186.497 24.44V29.5317C186.497 29.5796 186.497 29.6206 186.497 29.6685V29.5727C186.497 30.4994 186.439 30.944 185.637 30.944V31.0876H189.767V30.944C188.969 30.9405 188.908 29.8702 188.908 29.8702ZM11.6793 14.4277C11.6793 13.4155 12.4773 11.7126 14.145 10.9193C14.8919 10.5636 15.7479 10.3653 16.4709 10.2525C15.8332 11.952 16.1913 13.9455 17.5554 15.3133C19.4141 17.177 22.4323 17.177 24.291 15.3133C24.4547 15.1492 24.6047 14.9714 24.7411 14.7902C22.8757 16.1888 20.2189 16.0383 18.524 14.3388C16.829 12.6393 16.679 9.97548 18.0738 8.10501C17.8931 8.24179 17.7191 8.39224 17.552 8.55638C17.1359 8.97356 16.8154 9.4523 16.5869 9.9618C16.5459 9.9618 16.505 9.95838 16.4607 9.95838C12.242 9.95838 9.19652 12.4409 9.19652 16.0349C9.19652 23.5886 22.521 22.2789 22.521 28.7555C22.521 29.9967 21.0102 32.0963 19.114 32.9546C18.2955 33.3274 17.5077 33.5188 16.8631 33.6214C17.5179 31.9151 17.1598 29.9078 15.7888 28.5298C13.9302 26.6661 10.912 26.6661 9.05329 28.5298C8.88618 28.6939 8.73953 28.8717 8.60311 29.053C10.4686 27.6544 13.1253 27.8048 14.8203 29.5043C16.5153 31.2038 16.6653 33.8676 15.2705 35.7381C15.4512 35.6013 15.6251 35.4509 15.7922 35.2867C16.2151 34.8627 16.5391 34.3737 16.7676 33.8574C16.7915 33.8574 16.812 33.8574 16.8324 33.8574C21.8218 33.8574 25.3345 31.0055 25.3345 27.0115C25.338 19.1603 11.6793 20.4358 11.6793 14.4277ZM21.3137 32.2536C22.0913 31.4056 23.1246 30.3592 23.1246 28.7623C23.1246 25.2505 19.7483 23.8074 16.4811 22.4157C13.0469 20.9487 9.80017 19.5638 9.80017 16.0417C9.80017 14.2977 10.6016 12.841 11.9555 11.8699C11.3894 12.5743 11.0757 13.4463 11.0757 14.4311C11.0757 17.6386 14.3906 18.9962 17.5929 20.3092C21.1022 21.7489 24.7343 23.2329 24.7343 27.0183C24.7377 29.1111 23.1655 31.409 21.3137 32.2536ZM22.4835 7.37323C22.1254 9.58565 21.8355 9.87632 19.6324 10.2319C21.8389 10.591 22.1288 10.8817 22.4835 13.0907C22.8415 10.8782 23.1314 10.5876 25.3345 10.2319C23.1314 9.8729 22.8415 9.58224 22.4835 7.37323ZM10.8642 30.7456C10.5061 32.958 10.2162 33.2487 8.01312 33.6043C10.2197 33.9634 10.5095 34.254 10.8642 36.463C11.2223 34.2506 11.5122 33.96 13.7153 33.6043C11.5122 33.2453 11.2223 32.9546 10.8642 30.7456ZM34.413 17.748C34.413 13.0941 32.5817 8.71368 29.2565 5.41726C26.0576 2.24737 21.8764 0.503423 17.4736 0.503423C17.4668 0.503423 17.4633 0.5 17.4565 0.5C17.4497 0.5 17.4463 0.503423 17.4395 0.503423C17.3781 0.503423 17.3201 0.5 17.2587 0.5C17.0746 0.50342 16.8904 0.506842 16.7062 0.513681C12.317 0.701754 8.22456 2.59617 5.18589 5.84813C2.16428 9.07957 0.5 13.3027 0.5 17.7378V41.1991C0.5 41.3666 0.633007 41.5 0.800117 41.5H34.1027C34.2698 41.5 34.4028 41.3666 34.4028 41.1991L34.413 17.748ZM33.8128 17.748V38.4806H31.8655V17.5018C31.8655 9.82845 25.5596 3.57073 17.7532 3.41343V1.10867C21.8969 1.19074 25.8154 2.85605 28.8302 5.8447C32.0462 9.02827 33.8128 13.2582 33.8128 17.748ZM3.64098 38.4806L3.64439 17.5018C3.64439 10.061 9.84109 4.00843 17.4565 4.00843C25.0719 4.00843 31.2686 10.061 31.2686 17.5018V38.4806H3.64098ZM16.7301 1.11552C16.8699 1.10868 17.0132 1.10526 17.1564 1.10526V3.41685C9.35 3.57414 3.04416 9.83187 3.04416 17.5053L3.04075 38.484H1.09341V17.7412C1.09682 8.79574 7.96537 1.49509 16.7301 1.11552ZM33.8026 40.8982H1.09682V39.0824H3.27948C3.29994 39.0858 3.32041 39.0961 3.34428 39.0961C3.36815 39.0961 3.38862 39.0892 3.40908 39.0824H33.8026V40.8982Z" id="Vector"></path>
</svg>
