<svg xmlns="http://www.w3.org/2000/svg" fill="none" viewBox="0 0 116 20" height="20" width="116">
<path fill="#F3C626" d="M7.9 19L9.4 12.3L4.5 7.9L11 7.3L13.5 1L16 7.3L22.5 7.9L17.6 12.4L19.1 19.1L13.5 15.6L7.9 19Z"></path>
<path fill="#F3C626" d="M30.4 19L31.9 12.3L27 7.9L33.5 7.3L36 1L38.5 7.3L45 7.9L40.1 12.4L41.6 19.1L36 15.5L30.4 19Z"></path>
<path fill="#F3C626" d="M52.9 19L54.4 12.3L49.5 7.8L56 7.3L58.5 1L61 7.3L67.5 7.9L62.6 12.4L64.1 19.1L58.5 15.6L52.9 19Z"></path>
<path fill="#F3C626" d="M75.4 19L76.9 12.3L72 7.9L78.5 7.3L81 1L83.5 7.3L90 7.9L85.1 12.4L86.6 19.1L81 15.5L75.4 19Z"></path>
<path stroke-width="0.75" stroke="#F3C626" d="M98.6 18.1002L99.8 12.4002L99.9 12.2002L99.7 12.0002L95.5 8.2002L101 7.7002H101.3L101.4 7.5002L103.5 2.2002L105.6 7.5002L105.7 7.7002H106L111.5 8.2002L107.3 12.0002L107.1 12.2002L107.2 12.4002L108.4 18.1002L103.7 15.1002L103.5 15.0002L103.3 15.1002L98.6 18.1002Z"></path>
<path fill="#F3C626" d="M99.4 12.3L97.9 19L103.5 15.5V1L101 7.3L94.5 7.9L99.4 12.3Z"></path>
</svg>
