<svg width="24" height="24" viewBox="0 0 24 24" fill="none" xmlns="http://www.w3.org/2000/svg">
<g clip-path="url(#clip0_236_285)">
<path d="M10.1351 5.14277C10.6083 4.84105 11.0471 4.58734 11.4585 4.29934C12.4048 3.62734 13.55 3.94962 14.0643 4.86848C14.3385 5.36219 14.6677 5.82848 14.9763 6.30848C15.1271 6.54848 15.0997 6.66505 14.8665 6.80905C12.6448 8.22162 10.4163 9.64105 8.19454 11.0536C6.93283 11.8559 5.67797 12.6582 4.41625 13.4605C4.39568 13.4742 4.38197 13.4948 4.3614 13.5085C4.4094 13.5976 4.48483 13.5496 4.54654 13.5496C8.4894 13.5496 12.4323 13.5496 16.3683 13.5496C16.8071 13.5496 16.8825 13.6182 16.8825 14.0639V21.3325C16.8825 22.0045 16.622 22.5393 16.0391 22.8959C15.806 23.0399 15.5454 23.1222 15.2643 23.1222C11.7123 23.1222 8.16025 23.1222 4.60825 23.1222C3.81968 23.1222 3.07225 22.3885 3.05168 21.5999C3.02425 20.5713 3.03797 19.5428 3.03797 18.5142C3.03797 17.2182 3.03797 15.9291 3.03797 14.6331C3.03797 14.5508 3.07911 14.4411 2.99683 14.3999C2.92825 14.3656 2.85968 14.4548 2.79797 14.4891C2.57168 14.6262 2.35225 14.7771 2.12597 14.9142C1.89283 15.0582 1.76254 15.0308 1.61854 14.8045C1.29625 14.3039 0.980826 13.8102 0.665397 13.3096C0.0688259 12.3565 0.295112 11.4033 1.2414 10.7999C1.68025 10.5188 2.11911 10.2376 2.56483 9.96334C2.68825 9.88105 2.71568 9.83991 2.56483 9.75077C1.94083 9.38048 1.64597 8.68105 1.80368 8.01591C1.96825 7.32334 2.56483 6.80905 3.28483 6.76791C3.67568 6.74734 4.04597 6.88448 4.42311 6.96677C4.99911 7.09019 5.56825 7.22048 6.14425 7.35077C6.29511 7.38505 6.33625 7.33705 6.37054 7.18619C6.61054 6.07534 6.8574 4.96448 7.11797 3.86048C7.29625 3.11991 7.90654 2.63305 8.64711 2.61248C9.34654 2.59191 9.97054 3.05134 10.2105 3.75077C10.3477 4.14162 10.2517 4.51877 10.1763 4.89591C10.1625 4.95762 10.1557 5.01934 10.1351 5.12905V5.14277ZM11.5477 18.3291C11.5477 19.6593 11.5477 20.9896 11.5477 22.3268C11.5477 22.5188 11.5888 22.5805 11.7877 22.5736C12.8917 22.5599 13.9957 22.5736 15.1065 22.5736C15.8265 22.5736 16.3134 22.1005 16.3134 21.3873C16.3134 19.0422 16.3134 16.6971 16.3134 14.3588C16.3134 14.1873 16.2654 14.1256 16.094 14.1256C14.654 14.1325 13.214 14.1393 11.774 14.1325C11.5957 14.1325 11.5408 14.1805 11.5408 14.3656C11.5477 15.6891 11.5408 17.0125 11.5408 18.3359L11.5477 18.3291ZM7.41968 18.3359C7.41968 17.0056 7.41968 15.6685 7.41968 14.3382C7.41968 14.1531 7.35797 14.1119 7.1934 14.1119C6.06197 14.1119 4.9374 14.1188 3.80597 14.1119C3.62768 14.1119 3.58654 14.1736 3.58654 14.3451C3.58654 16.7039 3.58654 19.0696 3.5934 21.4285C3.5934 22.0868 4.0734 22.5599 4.72483 22.5599C5.54083 22.5599 6.36368 22.5599 7.17968 22.5599C7.36483 22.5599 7.41283 22.5051 7.41283 22.3268C7.40597 20.9965 7.41283 19.6593 7.41283 18.3291L7.41968 18.3359ZM10.9854 18.3565C10.9854 17.0193 10.9854 15.6753 10.9854 14.3382C10.9854 14.2079 10.9854 14.1188 10.8071 14.1188C9.92254 14.1256 9.03111 14.1256 8.14654 14.1188C8.0094 14.1188 7.98197 14.1668 7.98197 14.2971C7.98197 16.9851 7.98197 19.6731 7.98197 22.3611C7.98197 22.5256 8.02311 22.5736 8.19454 22.5736C9.05168 22.5668 9.90882 22.5599 10.766 22.5736C10.9648 22.5736 10.9923 22.505 10.9923 22.3336C10.9923 21.0102 10.9923 19.6868 10.9923 18.3633L10.9854 18.3565ZM4.90997 9.13362C4.87568 9.15419 4.83454 9.17477 4.7934 9.20219C3.67568 9.90848 2.55797 10.6148 1.44711 11.3279C0.871111 11.6982 0.727112 12.3496 1.08368 12.9325C1.26883 13.2273 1.45397 13.5291 1.64597 13.8171C1.75568 13.9816 1.82425 14.2628 1.98883 14.2902C2.14654 14.3108 2.33168 14.1119 2.50311 14.0022C3.76483 13.1999 5.02654 12.4045 6.2814 11.6022C6.36368 11.5542 6.50083 11.5268 6.39797 11.3691C5.93854 10.6559 5.48597 9.94277 5.02654 9.22962C4.99911 9.18848 4.97854 9.12677 4.90311 9.14048L4.90997 9.13362ZM12.5351 4.49134C12.3294 4.50505 12.1237 4.54619 11.9317 4.66277C10.8208 5.36905 9.71683 6.07534 8.60597 6.77477C8.49625 6.84334 8.4894 6.89134 8.55797 7.00791C9.01054 7.70734 9.45625 8.40677 9.89511 9.11305C9.96368 9.22962 10.0117 9.23648 10.1283 9.16791C11.5065 8.29019 12.8848 7.41248 14.2631 6.54162C14.366 6.47305 14.4003 6.42505 14.318 6.30848C14.03 5.86962 13.7557 5.41019 13.4677 4.97134C13.2551 4.64905 12.9328 4.50505 12.542 4.49134H12.5351ZM6.98768 11.1496C6.98768 11.1496 7.0494 11.1222 7.07682 11.1016C7.85168 10.6079 8.62654 10.1142 9.4014 9.62734C9.50425 9.55877 9.48368 9.51077 9.42883 9.42162C8.97625 8.71534 8.52368 8.00905 8.07797 7.29591C8.01625 7.19305 7.96825 7.17248 7.8654 7.24105C7.11111 7.72791 6.34997 8.21477 5.58197 8.69477C5.45168 8.77705 5.45854 8.83877 5.52711 8.95534C5.97283 9.64791 6.41168 10.3473 6.8574 11.0399C6.88483 11.0811 6.9054 11.1428 6.98768 11.1496ZM6.96025 7.16562C7.79682 6.63077 8.57854 6.13019 9.36711 5.62962C9.4494 5.58162 9.48368 5.51305 9.50425 5.42391C9.57282 5.08105 9.64825 4.74505 9.70997 4.40219C9.80597 3.86734 9.46311 3.33934 8.93511 3.21591C8.3934 3.08562 7.8174 3.40105 7.69397 3.93591C7.44711 4.98505 7.22083 6.04791 6.96711 7.16562H6.96025ZM5.86311 7.86505C5.04711 7.68677 4.30654 7.51534 3.55911 7.36448C3.02425 7.25477 2.4894 7.59762 2.35911 8.11877C2.22197 8.66734 2.54425 9.23648 3.07911 9.38048C3.18883 9.41477 3.3054 9.47648 3.43568 9.39419C4.22425 8.89362 5.01283 8.39991 5.86311 7.87191V7.86505Z" fill="white"/>
<path d="M23.1567 7.42625C23.1567 7.55653 23.0881 7.64567 22.9921 7.69367C22.5464 7.93367 22.3475 8.28339 22.4847 8.79082C22.4984 8.83196 22.4915 8.88682 22.4847 8.92796C22.4778 9.18853 22.279 9.3051 22.0527 9.17482C21.8744 9.07196 21.7098 8.96225 21.5452 8.84567C21.4424 8.7771 21.3601 8.76339 21.2435 8.81825C21.0652 8.90053 20.887 8.97596 20.7018 9.03767C20.4207 9.14053 20.1807 8.94853 20.2972 8.68796C20.5372 8.14625 20.4138 7.74853 19.9955 7.36453C19.7967 7.17939 19.9201 6.93253 20.1875 6.9051C20.3658 6.88453 20.5441 6.8571 20.7224 6.87082C20.9075 6.88453 21.0104 6.80225 21.0858 6.65825C21.1681 6.50739 21.2641 6.37025 21.3532 6.21939C21.4218 6.10282 21.511 6.05482 21.6412 6.06167C21.7784 6.06167 21.847 6.15767 21.895 6.26739C21.9704 6.44567 22.039 6.63082 22.1007 6.8091C22.1418 6.91882 22.2035 6.98739 22.327 7.00796C22.5258 7.04225 22.7178 7.0971 22.9098 7.15196C23.0538 7.1931 23.1361 7.28225 23.1361 7.4331L23.1567 7.42625ZM22.231 7.54967C21.8744 7.52225 21.6481 7.35082 21.5727 6.98053C21.4218 7.30967 21.1887 7.4811 20.8047 7.42625C21.0995 7.6731 21.1475 7.95425 21.0035 8.29025C21.319 8.1051 21.5932 8.11882 21.8538 8.36567C21.9087 8.04339 22.0321 7.76225 22.231 7.54282V7.54967Z" fill="white"/>
<path d="M19.8655 10.1898C19.8312 10.416 19.8106 10.6355 19.7558 10.8412C19.7215 10.9783 19.7558 11.0606 19.8518 11.1429C19.9958 11.2732 20.1398 11.4035 20.2701 11.5475C20.4689 11.7669 20.3935 11.9795 20.1055 12.0412C19.9478 12.0755 19.7832 12.1166 19.6255 12.1166C19.4129 12.1166 19.3032 12.2126 19.2278 12.3978C19.1729 12.5486 19.0975 12.6995 19.0152 12.8366C18.8781 13.0835 18.6244 13.0835 18.4872 12.8366C18.3912 12.6583 18.2952 12.48 18.2198 12.2949C18.1718 12.1783 18.0964 12.1372 17.9729 12.1235C17.7809 12.1029 17.5889 12.0755 17.3969 12.0343C17.1089 11.9795 17.0335 11.7532 17.2324 11.5406C17.3764 11.3829 17.5341 11.2458 17.6849 11.1018C17.7604 11.0332 17.7809 10.9646 17.7535 10.8549C17.7055 10.656 17.6712 10.4435 17.6438 10.2378C17.6095 9.99775 17.8289 9.83318 18.0484 9.92918C18.2404 10.0115 18.4255 10.1075 18.6106 10.2172C18.7204 10.2789 18.8026 10.2789 18.9124 10.2172C19.0975 10.1143 19.2826 10.0115 19.4746 9.92918C19.6735 9.84004 19.8792 9.97718 19.8792 10.176L19.8655 10.1898ZM19.1866 10.7178C18.8849 10.9509 18.6038 10.9303 18.3021 10.7178C18.4186 11.0743 18.3432 11.3486 18.0346 11.5612C18.4049 11.5749 18.6381 11.7326 18.7546 12.0892C18.8575 11.712 19.1112 11.5749 19.4746 11.5543C19.1386 11.3555 19.1044 11.0675 19.1935 10.7178H19.1866Z" fill="white"/>
<path d="M19.9473 0.685939C20.0707 0.672225 20.1599 0.733939 20.2079 0.843653C20.2559 0.94651 20.3176 1.05622 20.3382 1.16594C20.4067 1.52251 20.6262 1.67337 20.969 1.72137C21.1679 1.7488 21.4147 1.74194 21.4765 2.00937C21.5382 2.26994 21.2982 2.35222 21.1473 2.46194C20.873 2.65394 20.6947 2.85965 20.8045 3.22308C20.8387 3.33965 20.8319 3.46994 20.825 3.59337C20.8113 3.82651 20.6125 3.93622 20.4136 3.81965C20.1873 3.68937 19.9747 3.44937 19.7416 3.4288C19.5085 3.40822 19.2547 3.59337 19.0079 3.68251C18.7747 3.7648 18.5827 3.59337 18.6307 3.35337C18.6445 3.27108 18.665 3.18194 18.6993 3.10651C18.8707 2.74308 18.809 2.44137 18.5005 2.1808C18.4387 2.1328 18.3907 2.06422 18.3496 2.00251C18.2742 1.90651 18.2262 1.80365 18.2947 1.68022C18.3565 1.56365 18.4525 1.51565 18.5827 1.52251C19.1107 1.57051 19.5085 1.40594 19.7005 0.871082C19.7416 0.761367 19.8239 0.672225 19.9679 0.679082L19.9473 0.685939ZM20.201 3.01051C20.1187 2.64022 20.2353 2.37965 20.5713 2.20137C20.1873 2.16708 19.9747 1.96822 19.8856 1.6048C19.7485 1.89965 19.5702 2.07794 19.2342 2.05051C19.1039 2.0368 19.1793 2.16022 19.2342 2.20822C19.4262 2.36594 19.433 2.55794 19.3576 2.77737C19.3439 2.81851 19.289 2.87337 19.3713 2.94194C19.6456 2.73622 19.9199 2.77737 20.201 3.01737V3.01051Z" fill="white"/>
<path d="M17.424 7.18637C18.0549 7.1658 18.6514 7.32351 19.2274 7.55666C19.392 7.62523 19.4949 7.7418 19.4194 7.92009C19.344 8.09151 19.2 8.14637 19.0149 8.07094C18.5691 7.89266 18.1097 7.76923 17.6229 7.7418C16.4366 7.67323 15.4971 8.16694 14.7154 9.01037C14.4686 9.27094 14.2697 9.5658 14.0846 9.87437C13.9954 10.0252 13.8857 10.1418 13.6869 10.0458C13.5223 9.96351 13.4811 9.8058 13.5977 9.60694C14.3451 8.3178 15.3943 7.44009 16.9029 7.19323C16.9234 7.19323 16.9509 7.19323 16.9714 7.19323H17.4171L17.424 7.18637Z" fill="white"/>
<path d="M17.2182 6.5282C16.8822 6.53506 16.5256 6.47334 16.1691 6.3842C15.9839 6.3362 15.8742 6.2402 15.9016 6.04134C15.9222 5.86991 16.0936 5.78077 16.3062 5.83563C16.6216 5.91106 16.9439 5.96591 17.2731 5.96591C18.4182 5.96591 19.1314 5.41048 19.4056 4.29963C19.4056 4.29277 19.4056 4.28591 19.4056 4.27906C19.4742 3.99106 19.5908 3.88134 19.7691 3.92934C19.9542 3.97734 20.0159 4.13506 19.9474 4.40934C19.6182 5.79448 18.6788 6.53506 17.2182 6.5282Z" fill="white"/>
<path d="M16.5398 11.2045C16.2998 11.1702 16.0255 11.1085 15.7443 11.0947C14.7226 11.0605 13.8929 11.4239 13.2689 12.233C13.1523 12.3839 12.9672 12.425 12.8438 12.3222C12.7066 12.1987 12.6998 12.0547 12.8095 11.9107C13.3306 11.2182 14.0232 10.7793 14.8666 10.601C15.4426 10.4776 16.0255 10.5119 16.6015 10.649C16.766 10.6902 16.8758 10.7862 16.862 10.9576C16.8483 11.1085 16.7523 11.2113 16.5398 11.2113V11.2045Z" fill="white"/>
<path d="M12.7131 12.7682C12.7063 13.0288 12.4525 13.2619 12.1851 13.2619C11.9177 13.2619 11.6914 13.0151 11.6914 12.7477C11.6914 12.4802 11.9383 12.2402 12.1988 12.2402C12.4731 12.2402 12.72 12.5008 12.7131 12.7682Z" fill="white"/>
<path d="M16.1627 3.07178C16.4164 3.07178 16.677 3.31863 16.677 3.57921C16.677 3.83978 16.437 4.08663 16.1764 4.09349C15.9158 4.09349 15.669 3.86035 15.6621 3.59292C15.6621 3.33921 15.909 3.07863 16.1627 3.07178Z" fill="white"/>
<path d="M23.2936 4.71072C23.0193 4.71072 22.7862 4.49129 22.7793 4.21701C22.7793 3.94958 23.0124 3.71643 23.2867 3.72329C23.5747 3.72329 23.7942 3.93586 23.7942 4.21701C23.7942 4.49815 23.5747 4.71758 23.2936 4.71758V4.71072Z" fill="white"/>
<path d="M11.9865 10.4024C11.9865 10.6767 11.7602 10.9167 11.4928 10.9167C11.2185 10.9167 10.9922 10.6904 10.9922 10.4093C10.9922 10.135 11.2116 9.89502 11.4859 9.89502C11.7533 9.89502 11.9865 10.1282 11.9933 10.4024H11.9865Z" fill="white"/>
<path d="M22.9582 11.2251C22.9582 11.5131 22.7524 11.7326 22.4713 11.7394C22.197 11.7463 21.9707 11.5269 21.9639 11.2457C21.9639 10.9577 22.1696 10.7383 22.4507 10.7383C22.7387 10.7383 22.9513 10.944 22.9513 11.2251H22.9582Z" fill="white"/>
</g>
<defs>
<clipPath id="clip0_236_285">
<rect width="24" height="24" fill="white"/>
</clipPath>
</defs>
</svg>
