<svg width="137" height="137" viewBox="0 0 137 137" fill="none" xmlns="http://www.w3.org/2000/svg">
<g clip-path="url(#clip0_190_411)">
<g clip-path="url(#clip1_190_411)">
<path d="M16.2727 21.0566C16.0196 21.2659 15.7961 21.4376 15.5873 21.6239C14.5539 22.5518 13.5219 23.4804 12.4913 24.4098C12.1159 24.7468 11.7405 25.0796 11.3504 25.3977C11.072 25.6238 10.9434 25.607 10.6481 25.4249C10.8421 24.8514 11.3167 24.4788 11.7026 24.0435C12.3817 23.2586 13.1029 22.5092 13.8115 21.7411C14.2333 21.289 14.6551 20.8411 15.1191 20.3429C14.7585 20.2655 14.4864 20.1336 14.1426 20.1796C13.7335 20.2194 13.3096 20.1085 12.892 20.0645C11.652 19.9368 10.414 19.7966 9.17396 19.6857C7.99928 19.5789 6.82249 19.5203 5.64992 19.4073C4.22638 19.2712 2.80705 19.0975 1.38562 18.9447C1.11779 18.9154 0.847849 18.907 0.577904 18.8987C0.463057 18.9108 0.347219 18.8876 0.246116 18.8322C0.145013 18.7767 0.0635228 18.6918 0.0126953 18.5889C0.246788 18.2938 0.613752 18.2749 0.942748 18.2393C1.49318 18.1807 2.04995 18.1745 2.6046 18.1619C4.3255 18.1179 6.02953 17.9128 7.73567 17.7014C8.66571 17.5863 9.59997 17.4921 10.5321 17.3854C10.6656 17.3865 10.7988 17.397 10.9307 17.4168C11.1763 17.4513 11.4266 17.4149 11.652 17.3121C11.8847 17.2236 12.1325 17.1809 12.3817 17.1865C13.3012 17.1216 14.2101 16.9772 15.1233 16.8558C15.1233 16.7742 15.1233 16.7093 15.1043 16.6821C14.5792 16.0981 14.0499 15.5183 13.5226 14.9364L11.9451 13.1971C11.5402 12.7513 11.1522 12.2866 10.7156 11.8701C10.3402 11.508 10.2664 11.0789 10.2411 10.6142C10.4984 10.5075 10.627 10.677 10.7704 10.7712C11.0298 10.9428 11.2808 11.127 11.5318 11.3091C11.6166 11.3647 11.6951 11.4292 11.7659 11.5017C12.3058 12.1443 13.0523 12.5482 13.6871 13.0694C14.3219 13.5906 14.9525 14.1515 15.6041 14.6895C15.7644 14.8234 15.9416 14.9385 16.1925 15.1206C16.2368 14.7816 16.2769 14.5116 16.3043 14.2395C16.3591 13.6911 16.3992 13.1427 16.4562 12.5964C16.6396 10.8549 16.8316 9.11347 17.0129 7.36365C17.091 6.61642 17.1247 5.865 17.2238 5.12195C17.401 3.84935 17.5359 2.57675 17.5866 1.29159C17.6249 0.943014 17.7071 0.600573 17.8312 0.27226C17.8436 0.19261 17.885 0.120243 17.9476 0.0689174C18.0102 0.017592 18.0896 -0.00911275 18.1707 -0.00612094C18.3195 0.324889 18.4094 0.678968 18.4365 1.04042C18.4976 1.63905 18.4997 2.24605 18.5988 2.83839C18.9067 4.6531 18.8097 6.49502 18.9932 8.32019C19.1155 9.61582 19.2168 10.9135 19.3201 12.2112C19.4024 13.2578 19.4741 14.3043 19.55 15.3509C19.5614 15.4146 19.577 15.4775 19.5964 15.5393C19.6928 15.4781 19.7857 15.4117 19.8748 15.3404C20.4779 14.7857 21.0621 14.2122 21.68 13.6659C22.3696 13.0631 23.0888 12.4938 23.789 11.9057C24.1201 11.6294 24.4491 11.351 24.7633 11.0538C25.0775 10.7565 25.3222 10.7272 25.6322 10.9219C25.5921 11.5101 25.1113 11.8198 24.7886 12.2217C24.4027 12.701 23.9914 13.1615 23.5739 13.6136C23.1563 14.0657 22.7577 14.4508 22.3464 14.8695C22.2874 14.9281 22.1883 14.9699 22.163 15.039C21.9521 15.6481 21.3194 15.939 21.0115 16.4728C20.9292 16.613 20.8301 16.7407 20.7015 16.9291C22.1018 17.1677 23.4431 17.1384 24.7781 17.2807C26.113 17.423 27.4163 17.5863 28.7366 17.6993C30.0568 17.8124 31.417 17.8814 32.7562 17.9903C34.0954 18.0991 35.4008 17.9903 36.7147 18.3566C36.5861 18.7354 36.2929 18.7522 36.0419 18.7919C35.7108 18.8463 35.3692 18.8401 35.0339 18.8631C34.262 18.9154 33.4901 18.9677 32.714 19.0243C31.6596 19.0996 30.6051 19.1854 29.5506 19.2545C28.262 19.3403 26.9756 19.4303 25.6891 19.5391C24.4027 19.648 23.1795 19.738 21.9225 19.828C21.6631 19.8468 21.3995 19.828 21.0347 19.8385C21.3658 20.2675 21.6125 20.6129 21.8783 20.9394C22.2515 21.3894 22.6438 21.8206 23.0255 22.2644C23.6582 22.9928 24.2804 23.7295 24.8941 24.4558C25.202 24.8263 25.4888 25.2135 25.7714 25.6049C25.9696 25.8791 25.9823 26.1261 25.8789 26.5196C25.4888 26.4212 25.2462 26.101 24.9383 25.8917C24.6304 25.6824 24.3415 25.4249 24.0484 25.1821C23.7552 24.9393 23.4832 24.6651 23.1731 24.4433C22.8631 24.2214 22.6501 23.9116 22.2747 23.7463C21.9373 23.5977 21.6758 23.2816 21.3848 23.0346C21.0937 22.7876 20.8069 22.5323 20.518 22.2811L19.6217 21.5067C19.5639 21.6094 19.52 21.7191 19.4909 21.8332C19.396 22.9948 19.2969 24.1565 19.221 25.3182C19.1493 26.394 19.1155 27.4699 19.0417 28.5436C18.9827 29.4102 18.873 30.2725 18.8118 31.137C18.7507 32.0014 18.7254 32.8303 18.6811 33.6759C18.6788 33.8098 18.6668 33.9434 18.6452 34.0757C18.4934 34.8229 18.5229 35.5806 18.485 36.3341C18.4554 36.9013 18.4533 37.4937 18.2277 38.0797C18.0757 38.0162 17.9434 37.9138 17.8445 37.7828C17.7455 37.6519 17.6834 37.4972 17.6646 37.3346C17.5823 36.5706 17.4895 35.8087 17.4263 35.0427C17.2681 33.1589 17.131 31.2898 16.975 29.4144C16.899 28.5018 16.7873 27.5934 16.7156 26.6808C16.6375 25.6887 16.5848 24.6944 16.5258 23.7002C16.4794 22.9216 16.4414 22.143 16.3908 21.3643C16.3635 21.2576 16.3239 21.1543 16.2727 21.0566Z" fill="#00354B"/>
<path d="M62.3298 78.9932L61.8448 78.4594L62.0156 78.1287C61.9249 78.1287 61.8047 78.1559 61.7942 78.1287C61.5833 77.8169 61.2205 77.6829 61.0181 77.3229C60.6806 76.7243 60.3854 76.0984 59.9805 75.5354C59.7021 75.1377 59.3478 74.784 59.0441 74.4114C58.9914 74.3486 58.8965 74.2879 58.8923 74.2209C58.8585 73.84 58.6286 73.5449 58.422 73.2602C58.1267 72.8541 57.8104 72.4544 57.4898 72.0692C57.0475 71.5796 56.6711 71.035 56.37 70.4492C56.2603 70.2169 56.0199 70.0494 55.8533 69.8401C55.6616 69.6086 55.4848 69.3653 55.3239 69.1117C55.2754 69.0322 55.3239 68.9024 55.3239 68.8836C55.1208 68.6467 54.9314 68.3987 54.7566 68.1405C54.5963 67.8747 54.5099 67.5691 54.2146 67.3933C54.1513 67.3556 54.1703 67.184 54.1471 67.0416C54.0134 66.9965 53.892 66.9212 53.7925 66.8217C53.693 66.7222 53.618 66.6012 53.5735 66.4681C53.4217 66.0725 53.0737 65.7335 52.7616 65.4216C52.4979 65.1599 52.1647 64.9716 52.0719 64.5676C52.0369 64.4519 51.9623 64.352 51.861 64.285C51.125 63.7806 50.9141 62.8931 50.3595 62.2568C50.3067 62.1961 50.332 62.0706 50.3173 61.9596H49.944C49.963 61.7043 49.809 61.5536 49.6614 61.3777C49.189 60.8231 48.763 60.2265 48.2906 59.674C47.9468 59.27 47.7697 58.7216 47.2361 58.4642C47.1794 58.4304 47.1311 58.3845 47.0946 58.3299C47.0581 58.2752 47.0344 58.2131 47.0252 58.1481C47.0252 57.853 46.8143 57.7002 46.6519 57.5202C46.441 57.2816 46.188 57.0722 45.9729 56.8357C45.8978 56.7263 45.8395 56.6064 45.7999 56.4799C45.589 55.9901 45.1672 55.6971 44.8087 55.3287C44.4502 54.9603 43.9947 54.571 43.7416 54.1105C43.4653 53.604 42.9254 53.2733 42.8305 52.6558C42.8246 52.6225 42.8084 52.5917 42.7841 52.5679C42.3623 52.187 41.9532 51.8102 41.5483 51.4209C41.4417 51.3262 41.3642 51.2036 41.3247 51.0672C41.3148 50.9516 41.2688 50.8419 41.1933 50.7534C41.1177 50.6649 41.0162 50.6019 40.9029 50.5732C40.7519 50.5312 40.6125 50.4554 40.4955 50.3517C40.3785 50.2479 40.287 50.1189 40.2281 49.9746L40.439 49.3174L39.9771 49.1269C39.8295 49.0641 39.7177 48.9552 39.5216 49.0976C39.4225 49.1708 39.1926 49.0662 39.0492 49.0452C39.0573 48.8762 39.033 48.7071 38.9775 48.5471C38.8994 48.4278 38.7244 48.3713 38.5367 48.2541L38.4882 47.9736L37.6868 47.5068C37.6446 47.4817 37.5856 47.4608 37.5645 47.421C37.2924 46.8936 36.8221 46.5838 36.3582 46.2384C36.0671 46.0291 35.8942 45.6628 35.6221 45.4158C35.0388 44.8506 34.4889 44.2523 33.9751 43.6241C33.8448 43.4785 33.7031 43.3434 33.5512 43.2202C33.4256 43.1387 33.3071 43.047 33.1969 42.946C32.7564 42.4497 32.266 41.9995 31.7332 41.6022C31.6004 41.1292 31.1006 41.0496 30.8095 40.765C30.6113 40.5703 30.4405 40.3464 30.2021 40.0743C30.2675 39.865 30.3477 39.5908 30.4468 39.3166C30.4721 39.2496 30.567 39.1533 30.6218 39.1575C30.9234 39.1847 31.2545 39.0424 31.5224 39.3019C31.8535 39.6159 32.29 39.8231 32.484 40.2752C32.5093 40.3338 32.6064 40.3652 32.6738 40.405C32.8495 40.4883 33.0168 40.5878 33.1737 40.7022C33.471 40.9659 33.7199 41.282 34.0172 41.529C34.5255 41.9476 34.9431 42.4374 35.4429 42.8581C35.9954 43.3248 36.6133 43.7749 36.9613 44.453C37 44.5065 37.0515 44.5496 37.1111 44.5786C37.6172 44.903 37.632 44.9847 37.2102 45.5079C37.7543 45.2463 38.0285 45.5184 38.3385 45.8596C38.6907 46.2447 38.9711 46.6968 39.4794 46.9563C39.7219 47.0861 39.8506 47.4022 40.1374 47.5236C40.2492 47.5717 40.3356 47.6806 40.4474 47.7329C40.6921 47.8417 40.7848 48.0008 40.6583 48.2415C40.8059 48.4278 41.137 48.4215 41.1159 48.7397C41.1174 48.756 41.1227 48.7717 41.1315 48.7855C41.1403 48.7994 41.1523 48.8109 41.1666 48.8192C41.736 48.9762 41.8267 49.7129 42.4319 49.8406C42.4612 49.8535 42.4868 49.8735 42.5063 49.8987C42.5259 49.9239 42.5387 49.9536 42.5437 49.985C42.5564 50.2885 42.7841 50.4434 42.9655 50.6381C43.2354 50.9269 43.4527 51.2765 43.7606 51.5172C44.1823 51.85 44.4312 52.3544 44.9226 52.6307C45.1335 52.7479 45.2221 53.0493 45.3845 53.2586C45.5129 53.405 45.6487 53.5447 45.7915 53.6773L45.3191 53.9201L45.3338 53.9933L45.6312 53.9619C45.8758 54.1712 46.0952 54.3575 46.3082 54.5501C46.4273 54.6411 46.5331 54.7482 46.6224 54.8682C46.7236 55.1 46.8984 55.2926 47.1201 55.4166C47.2298 55.4668 47.2235 55.7306 47.331 55.8499C47.4386 55.9692 47.6727 56.0383 47.7528 56.1806C47.8757 56.4373 47.9759 56.7041 48.0523 56.9781C48.1943 56.9619 48.3373 56.9997 48.4524 57.084C48.5674 57.1683 48.646 57.2927 48.6723 57.4323C48.7182 57.5416 48.7907 57.6379 48.8832 57.7127C49.1215 57.9639 49.5159 58.0916 49.4779 58.55C49.4779 58.5939 49.6635 58.6567 49.7922 58.7279C49.7183 58.9372 49.6466 59.1653 49.5644 59.4123C49.6509 59.4123 49.7057 59.4123 49.7394 59.3935C50.1612 59.1444 50.4776 59.2637 50.5957 59.7158C50.6104 59.7765 50.5767 59.8854 50.5957 59.9042C51.0006 60.1428 51.0638 60.6452 51.4097 60.9256C51.473 60.978 51.5637 61.0282 51.5848 61.0952C51.7746 61.7231 52.2681 62.0998 52.7236 62.5101C52.77 62.554 52.8628 62.6106 52.8543 62.6378C52.77 62.912 52.9956 63.0229 53.1243 63.1883C53.3478 63.4743 53.5644 63.766 53.7738 64.0632C53.8477 64.1699 53.8709 64.3122 53.9468 64.4169C54.1577 64.6953 54.3981 64.9485 54.5795 65.2416C54.668 65.3818 55.0139 65.3714 54.8452 65.6602C55.0877 65.7314 55.0434 65.9742 55.1426 66.129C55.3362 66.4177 55.5535 66.69 55.7921 66.9433C56.0937 67.2698 56.4248 67.5712 56.7327 67.8956C56.8065 67.9841 56.8669 68.0828 56.912 68.1886C56.9394 68.2452 56.9246 68.3456 56.9668 68.3728C57.3338 68.6198 57.3696 69.0803 57.648 69.3817C57.7429 69.4864 57.8589 69.5659 57.958 69.6747C58.0969 69.8341 58.2218 70.005 58.3313 70.1855C58.4852 70.4513 58.5422 70.7757 58.8416 70.9557C58.9376 71.0459 59.01 71.158 59.0525 71.2822C59.2339 71.6402 59.4132 71.9981 59.5798 72.3623C59.6929 72.6564 59.9125 72.8982 60.1956 73.0404C60.2799 73.0802 60.3348 73.1807 60.4065 73.2707L60.2631 73.5511C60.2799 73.5846 60.2842 73.6035 60.2968 73.6118C60.9843 74.1121 61.2079 74.9724 61.8153 75.5375C62.0328 75.7064 62.2197 75.911 62.3678 76.1424C62.4454 76.3702 62.5398 76.592 62.6504 76.8059C62.9752 77.2999 63.3021 77.7959 63.5847 78.315C63.7238 78.5683 63.9516 78.7797 64.0486 79.012C64.1625 79.2883 64.5274 79.5458 64.2785 79.9581C64.8838 80.0732 64.985 80.6216 65.1221 81.0549C65.1889 81.3116 65.3367 81.5404 65.5439 81.7079C65.4701 81.8419 65.4026 81.9633 65.3119 82.1265C65.7084 82.2668 65.9868 82.4865 65.9804 82.9261C65.9804 82.9638 66.031 83.014 66.0711 83.0391C66.4535 83.3008 66.7382 83.6805 66.8809 84.1192C66.9024 84.1818 66.9386 84.2384 66.9864 84.2845C67.3196 84.5357 67.1973 84.835 67.0792 85.1217C67.226 85.1697 67.3674 85.2328 67.501 85.3101C67.5874 85.3708 67.6971 85.509 67.6781 85.578C67.6212 85.7706 67.7393 85.8313 67.8321 85.9527C67.9776 86.1411 67.8785 86.4948 68.237 86.5513C68.1231 86.859 68.4247 86.9699 68.5217 87.1793C68.5607 87.361 68.5649 87.5485 68.5344 87.7318C68.9562 87.8616 69.146 88.2049 69.243 88.6256C69.2681 88.7037 69.3107 88.7752 69.3674 88.8349C69.5656 89.0651 69.6057 89.3582 69.6985 89.6303C70.076 89.6868 70.0823 90.0363 70.1583 90.2791C70.3354 90.861 70.7319 91.3257 70.9744 91.8594C71.101 92.1399 71.295 92.4329 71.1853 92.818C71.7526 92.9708 71.6556 93.5946 71.9783 93.942C71.818 94.2644 72.2735 94.3439 72.2609 94.66C72.2609 94.8441 72.554 95.0346 72.6953 95.2356C72.8661 95.4763 73.0201 95.7274 73.1698 95.9786C73.2087 96.0518 73.2249 96.1349 73.2162 96.2172C73.1994 96.3637 73.1361 96.504 73.1255 96.6484C73.1244 96.7989 73.1343 96.9493 73.1551 97.0984L73.3807 97.1445C73.4292 97.3224 73.425 97.5631 73.5389 97.6594C73.6528 97.7556 73.7371 98.0047 73.9839 97.9482C74.0007 97.9482 74.0535 98.0403 74.0661 98.0968C74.1294 98.3647 74.1863 98.6368 74.2644 99.0073C74.3492 99.0812 74.417 99.1723 74.4633 99.2745C74.5095 99.3767 74.533 99.4876 74.5322 99.5996C74.547 99.9576 74.8169 100.246 75.013 100.537C75.0984 100.638 75.1613 100.756 75.1977 100.882C75.234 101.009 75.243 101.142 75.2239 101.272C75.2287 101.462 75.2643 101.65 75.3294 101.829L74.973 102L74.9898 102.069L75.3273 102.097L75.6584 102.126C75.6183 102.291 75.5825 102.427 75.5403 102.601C76.1245 102.674 76.1456 103.244 76.4345 103.583C76.5779 103.752 76.4345 103.884 76.1835 103.926L76.4999 104.211C76.4619 104.294 76.4218 104.378 76.3818 104.464C76.7698 104.64 76.8035 104.688 76.7571 105.211C77.0566 105.184 77.2042 105.387 77.3076 105.611C77.5158 106.01 77.6894 106.426 77.8264 106.854C77.8854 107.064 77.761 107.323 77.7146 107.574C78.0141 107.629 78.1933 107.809 78.3009 108.169C78.4359 108.615 78.7227 109.006 78.9209 109.441C78.9983 109.608 79.0461 109.786 79.0622 109.969C79.078 110.206 79.1445 110.437 79.2572 110.647C79.3699 110.856 79.5263 111.04 79.716 111.185C79.78 111.258 79.8268 111.345 79.8531 111.438C79.9079 111.571 79.9564 111.705 79.9986 111.84C80.0265 111.943 80.0491 112.047 80.0661 112.152C80.0787 112.227 80.0534 112.342 80.0977 112.376C80.3761 112.602 80.2032 112.845 80.142 113.108C80.2608 113.147 80.3623 113.225 80.4293 113.33C80.4962 113.434 80.5244 113.559 80.509 113.682C80.5244 113.796 80.577 113.902 80.6587 113.983C80.8765 114.238 81.0369 114.537 81.129 114.858C81.2597 115.308 81.4095 115.754 81.5508 116.2L81.1838 116.409C81.5698 116.451 81.6879 116.828 81.9051 116.909C82.0169 117.165 82.097 117.353 82.1813 117.537C82.3285 117.897 82.3864 118.287 82.3501 118.674C82.3516 118.802 82.3841 118.928 82.445 119.04C82.5504 119.27 82.7887 119.507 82.7592 119.71C82.7473 119.902 82.7716 120.094 82.8309 120.277C82.8647 120.443 82.8626 120.65 83.122 120.696C83.1683 120.696 83.2211 120.891 83.2105 120.991C83.1898 121.363 83.3127 121.729 83.5543 122.015C83.5755 122.041 83.5909 122.071 83.5997 122.103C83.6084 122.136 83.6102 122.17 83.6049 122.203C83.4151 122.695 83.6365 123.072 84.0035 123.478L83.5817 123.641C83.5543 123.89 83.7736 123.85 83.8664 123.871C84.0146 124.119 84.1457 124.377 84.2587 124.643C84.2866 124.833 84.2866 125.025 84.2587 125.215L84.594 125.514C84.497 125.763 84.2945 126.04 84.6341 126.324L84.1806 126.628C84.6804 126.814 84.6277 127.235 84.8513 127.501L84.7627 127.576L84.4611 127.367L84.4168 127.404L84.923 127.823C84.8724 127.946 85.1697 128.137 84.9736 128.373C84.9609 128.388 85.0031 128.457 85.0305 128.493C85.058 128.528 85.1318 128.564 85.1318 128.599C85.1318 128.746 85.1001 128.892 85.1001 129.039C85.1001 129.185 85.3616 128.995 85.3933 129.267C85.4376 129.635 85.6485 129.983 85.794 130.356L85.214 131.044L85.5662 131.228L85.3827 131.825C85.2014 131.858 85.0263 132.009 84.8534 131.789C84.8407 131.775 84.7564 131.821 84.7058 131.829C84.6024 131.848 84.4949 131.86 84.3557 131.881C84.3557 131.657 84.5223 131.41 84.1912 131.381C84.1701 131.172 84.1469 130.962 84.1174 130.672L83.8643 130.431L84.1406 130.129C83.9634 130.029 84.1237 129.711 83.8074 129.679C83.7842 129.679 83.7441 129.592 83.7504 129.55C83.8516 128.903 83.3286 128.398 83.3645 127.739C83.3856 127.394 83.1304 127.023 82.9743 126.676C82.9287 126.598 82.9028 126.509 82.8988 126.419C82.8947 126.329 82.9127 126.239 82.9511 126.157C83.1367 125.78 83.1283 125.776 82.8014 125.594C82.7086 125.328 82.6179 125.106 82.5589 124.876C82.5093 124.648 82.4713 124.417 82.445 124.185C82.3859 123.787 82.3859 123.369 82.0042 123.113C82.0422 123.059 82.0527 123.021 82.078 123.009C82.1982 122.946 82.4407 123.028 82.4175 122.799C82.4175 122.699 82.2383 122.59 82.116 122.529C81.9578 122.462 81.8629 122.402 81.8924 122.207C81.8924 122.163 81.7617 122.096 81.6288 121.998L82.1392 121.678L82.1139 121.619L81.7764 121.69C81.5487 121.19 81.3272 120.7 81.1016 120.21C81.0615 120.122 80.9771 120.043 80.9687 119.955C80.9244 119.482 80.5954 119.101 80.5469 118.632C80.5329 118.5 80.4912 118.373 80.4246 118.257C80.3276 118.103 80.2664 117.985 80.4246 117.814C80.5195 117.705 80.393 117.322 80.2643 117.058C80.1926 116.91 79.9543 116.784 80.1525 116.564C80.1525 116.552 80.0893 116.466 80.0534 116.416C79.8953 116.187 79.7329 115.963 79.5789 115.733C79.5283 115.675 79.4993 115.601 79.4967 115.524C79.5177 115.426 79.5148 115.325 79.4884 115.228C79.462 115.132 79.4128 115.043 79.3448 114.969C79.293 114.903 79.2688 114.82 79.2773 114.737C79.3089 114.632 79.3004 114.519 79.2533 114.42C79.2062 114.32 79.1239 114.242 79.0221 114.199C78.9694 114.172 78.961 114.055 78.9399 113.977C78.9244 113.863 78.8932 113.752 78.8471 113.646C78.7206 113.454 78.4401 113.318 78.6594 113.018C78.5118 112.79 78.3705 112.556 78.2144 112.332C78.1517 112.27 78.0807 112.217 78.0035 112.175C78.0499 111.704 77.8496 111.338 77.6218 110.919C77.3519 110.438 76.9701 109.967 77.006 109.349C76.9912 109.249 76.9394 109.158 76.8605 109.094C76.5925 108.815 76.4417 108.445 76.4387 108.06C76.4223 107.848 76.3605 107.643 76.2573 107.457C76.1484 107.167 76.0775 106.865 76.0464 106.557L75.8102 106.521C75.6415 106.118 75.5445 105.684 75.2324 105.349C75.164 105.243 75.1174 105.124 75.0953 105C75.0805 104.954 75.0953 104.876 75.0721 104.857C74.7094 104.596 74.819 104.137 74.6208 103.811C74.548 103.718 74.4959 103.61 74.4679 103.495C74.4399 103.381 74.4367 103.261 74.4584 103.145C74.2475 102.896 73.9628 102.691 73.9649 102.492C73.9622 102.379 73.9367 102.267 73.89 102.164C73.8433 102.06 73.7763 101.967 73.6928 101.889C73.522 101.68 73.4419 101.502 73.5979 101.262C73.1466 100.855 72.9906 100.313 72.7923 99.7964C72.708 99.5703 72.7037 99.3108 72.4612 99.1454C72.3895 99.0973 72.3895 98.9006 72.4001 98.7771C72.4157 98.655 72.405 98.531 72.3687 98.4133C72.3323 98.2957 72.2711 98.1871 72.1892 98.0947C72.0078 97.8854 71.7674 97.6468 71.9593 97.291C72.0015 97.2177 71.9045 97.0817 71.8623 96.9247L71.5185 96.9833L71.7294 96.5647C71.7094 96.5112 71.6801 96.4616 71.6429 96.4181C71.2612 96.0916 71.1052 95.6228 70.8584 95.2104C70.6117 94.7981 70.5484 94.3334 70.1287 94.055C70.0958 94.0285 70.0697 93.9945 70.0528 93.9559C70.0359 93.9173 70.0287 93.8752 70.0317 93.8332C70.0971 93.5108 69.8778 93.3246 69.7344 93.0839C69.5235 92.7217 69.2894 92.3387 69.3758 91.8782L68.7769 91.3445C68.8613 91.2043 68.9266 91.0912 69.0236 90.9259L68.5365 90.7522L68.2665 90.231L68.5955 89.9296C67.908 89.8124 67.7878 89.2075 67.541 88.7302C67.4989 88.6384 67.4481 88.5508 67.3892 88.4686C67.231 88.2593 66.9674 88.119 66.9674 87.8135C66.9674 87.7318 66.8641 87.6439 66.7924 87.579C66.6806 87.4786 66.5266 87.4095 66.6384 87.2169C66.6462 87.2024 66.6502 87.1862 66.6502 87.1698C66.6502 87.1534 66.6462 87.1372 66.6384 87.1227C66.3347 86.7041 66.2166 86.1557 65.7695 85.8334C65.7948 85.3541 65.74 85.2473 65.3477 84.9396C65.2381 84.6152 65.1748 84.3682 65.0694 84.1401C64.9217 83.8282 64.7193 83.5415 64.578 83.2275C64.3671 82.7545 64.2912 82.6435 63.8335 82.3903L63.9727 82.07C63.65 81.6514 63.3168 81.2516 62.9942 80.833C62.9386 80.7528 62.9078 80.6582 62.9056 80.5609C62.9056 80.3516 62.9203 80.1611 62.9309 79.933C62.6954 79.8464 62.4727 79.7288 62.2687 79.5834C62.2013 79.4958 62.1701 79.3859 62.1815 79.2763C62.1928 79.1666 62.2459 79.0654 62.3298 78.9932ZM75.0974 103.103L75.2282 103.158C75.302 103.003 75.3758 102.848 75.5002 102.593C75.1986 102.764 75.0974 102.907 75.0974 103.103ZM48.2948 57.3988V57.3088L47.9595 57.2899V57.3988H48.2948ZM84.227 127.67V127.599H83.7694V127.67H84.227ZM47.0294 56.3899C47.0779 56.2664 47.1243 56.2057 47.1096 56.1806C47.0948 56.1555 47.021 56.1115 46.9746 56.078C46.9535 56.1157 46.9156 56.1597 46.9198 56.1952C46.9472 56.2648 46.9841 56.3303 47.0294 56.3899ZM61.8701 76.0503L61.8912 75.9268L61.6571 75.8912C61.6571 75.9205 61.6381 75.9728 61.6571 75.9749C61.7267 76.0038 61.7978 76.0289 61.8701 76.0503ZM72.7016 97.5568C72.6595 97.5107 72.632 97.4605 72.6025 97.4584C72.5814 97.4606 72.5612 97.4678 72.5436 97.4795C72.5259 97.4912 72.5114 97.5069 72.5013 97.5254C72.5013 97.5463 72.5371 97.6133 72.5624 97.6175C72.5878 97.6217 72.6384 97.5861 72.7016 97.5568Z" fill="#00354B"/>
<path d="M102.79 55.2911L101.81 54.7029L102.189 54.3911C101.23 54.278 100.726 53.6145 100.021 53.108L99.8377 53.1561C99.553 52.9594 99.34 52.6831 98.9688 52.591C98.7748 52.545 98.623 52.3189 98.4606 52.1724C98.1463 51.8773 97.889 51.4712 97.52 51.3038C96.9927 51.0651 96.7755 50.4665 96.1534 50.3451C95.9214 50.3033 95.7168 50.0312 95.5207 49.8386C95.4616 49.7779 95.4996 49.6293 95.4933 49.5037C95.227 49.5417 94.9562 49.4774 94.7362 49.3237C94.2443 49.0441 93.7815 48.7166 93.3548 48.3462C93.0321 48.049 92.4901 48.0511 92.2645 47.599C91.6613 47.4902 91.3534 46.9711 90.919 46.6341C90.8705 46.5964 90.7966 46.5462 90.7481 46.5566C90.3517 46.6487 90.1155 46.3473 89.8624 46.1673C89.1559 45.6817 88.4789 45.1564 87.7703 44.6791C87.429 44.4788 87.077 44.2972 86.7158 44.1349C86.5942 44.0798 86.4846 44.0016 86.3932 43.9047C86.2157 43.713 85.9923 43.569 85.7436 43.4861C85.3893 43.3375 85.1109 43.0214 84.7883 42.7786C84.6471 42.6621 84.4976 42.5558 84.3412 42.4605C84.1429 42.3537 83.8941 42.337 83.8709 42.0146C83.8709 41.9267 83.6199 41.8053 83.4702 41.7886C83.3163 41.7756 83.1614 41.7855 83.0104 41.8179L82.3777 41.5186C82.363 41.5186 82.3356 41.5186 82.3292 41.5081C82.0466 41.0099 81.3654 41.0769 81.0428 40.6144C80.9913 40.5401 80.9247 40.4774 80.8474 40.4301C80.77 40.3829 80.6836 40.3523 80.5936 40.3402C80.4939 40.3435 80.395 40.3203 80.3075 40.2728C80.2199 40.2253 80.1468 40.1553 80.0959 40.0702C79.8986 39.8461 79.6312 39.6943 79.3366 39.639C79.1405 39.6063 78.9578 39.5192 78.8094 39.3878C78.6056 39.1494 78.3322 38.9797 78.027 38.9022C77.949 38.8771 77.8435 38.8499 77.8161 38.7913C77.6052 38.4606 77.2446 38.3517 76.9556 38.1403C76.8687 38.0645 76.7633 38.0126 76.6498 37.9896C76.228 37.9457 76.1627 37.6233 76.0319 37.2947L75.6101 37.3847L74.4776 36.5768C74.4354 36.5768 74.2667 36.6479 74.1887 36.5956C73.7878 36.3626 73.4087 36.0943 73.0562 35.794C72.8886 35.6097 72.6593 35.4922 72.4109 35.4633C72.31 35.4699 72.2099 35.4419 72.1273 35.384C72.0448 35.326 71.9848 35.2417 71.9574 35.1451C71.9153 35.0174 71.717 34.9253 71.5715 34.85C71.059 34.5737 70.536 34.3204 70.0256 34.0421C69.8569 33.952 69.7198 33.8097 69.5617 33.7051C69.2327 33.4958 68.929 33.2278 68.4861 33.2446C68.4112 33.232 68.3404 33.2016 68.2798 33.1561C68.2193 33.1105 68.1707 33.0511 68.1381 32.9829C68.0643 32.7904 67.9146 32.8239 67.7859 32.7736C67.594 32.6941 67.3642 32.6815 67.284 32.4157C67.265 32.3425 67.1385 32.2901 67.052 32.242C66.7694 32.0892 66.4868 31.9301 66.1937 31.792C65.9005 31.6538 65.6432 31.5827 65.3775 31.4508C65.0606 31.3074 64.754 31.1424 64.4601 30.9568C64.1375 30.7475 63.8675 30.4608 63.4795 30.3289C63.3192 30.2787 63.1969 30.1196 63.0577 30.0024C63.0197 29.971 62.986 29.9103 62.948 29.9082C62.5684 29.8873 62.3153 29.5587 61.921 29.5273C61.6516 29.5051 61.4006 29.3824 61.2187 29.184C60.9487 28.8344 60.586 28.6586 60.2254 28.4556C59.8924 28.2654 59.5456 28.1003 59.1878 27.9616C58.8588 27.8319 58.5403 27.7523 58.3442 27.4174C58.3272 27.3991 58.3062 27.3848 58.2828 27.3757C58.2594 27.3666 58.2342 27.363 58.2092 27.3651C57.6524 27.4174 57.2855 27.0218 56.8405 26.8083C56.5874 26.6869 56.328 26.5802 56.0728 26.4651C55.8493 26.3646 55.5308 26.4546 55.4402 26.0925C55.417 26.0088 55.0838 26.1825 54.9846 25.9418C54.6493 26.0213 54.4384 25.7743 54.2085 25.6216C53.5463 25.1862 52.785 24.979 52.068 24.6734C51.8043 24.5604 51.6251 24.4641 51.6462 24.1689C51.1801 24.0706 50.7372 23.9952 50.3049 23.8801C50.1288 23.8333 49.9694 23.7383 49.8451 23.6059C49.7475 23.4767 49.6197 23.3731 49.4728 23.3038C49.3258 23.2345 49.1641 23.2017 49.0016 23.2082C48.7685 23.1963 48.5459 23.108 48.3689 22.957C48.0652 22.7038 47.6898 22.7477 47.3545 22.641C47.0191 22.5342 46.6585 22.5322 46.5109 22.1198C46.4877 22.0486 46.3506 22.0193 46.2684 21.967C46.1334 21.8791 46.0005 21.787 45.8613 21.6949C45.9319 21.4847 46.0836 21.3108 46.2831 21.2114C46.6923 20.9581 47.1267 20.9812 47.5675 20.9205C47.65 20.9071 47.7346 20.9165 47.8121 20.9477C48.1959 21.1256 48.5671 21.3307 48.9573 21.4919C49.2333 21.5901 49.515 21.6719 49.8008 21.7368C49.9274 21.7724 50.1045 21.764 50.1762 21.8456C50.5369 22.2642 51.1717 22.2224 51.507 22.664C51.9731 22.7122 52.3147 23.1224 52.7175 23.1831C53.2743 23.2647 53.6307 23.6226 54.0904 23.8299C54.1315 23.8556 54.1774 23.8727 54.2254 23.8801C54.7948 23.8508 55.185 24.2296 55.6321 24.4787C55.7354 24.5185 55.8419 24.5493 55.9505 24.5708C56.094 24.5969 56.2231 24.6736 56.3142 24.7866C56.4052 24.8997 56.4521 25.0416 56.4461 25.1862C56.714 24.9518 56.927 25.0313 57.2032 25.205C57.6634 25.4855 58.1536 25.7144 58.6647 25.8874C58.8966 25.935 59.1012 26.0691 59.2363 26.262C59.3161 26.3483 59.4264 26.4008 59.5442 26.4086C60.1769 26.4965 60.6176 26.9339 61.1491 27.2018C61.3431 27.3002 61.4486 27.5765 61.6109 27.7942C61.8077 27.7087 62.0235 27.6754 62.2371 27.6974C62.4508 27.7194 62.655 27.796 62.8299 27.9198C62.8679 28.3384 62.87 28.3237 63.2517 28.3949C63.4016 28.4194 63.545 28.4735 63.6735 28.554C64.0383 28.801 64.4686 28.8951 64.8482 29.0835C65.4619 29.3912 66.1578 29.5796 66.645 30.1133C66.6766 30.1489 66.7146 30.2201 66.7441 30.218C67.3515 30.1761 67.6341 30.8459 68.2204 30.8752C68.3195 30.8752 68.4165 31.0238 68.5135 31.1054C68.6105 31.1871 68.7054 31.3441 68.8109 31.3503C69.1926 31.3776 69.3719 31.7145 69.6777 31.8569C69.9835 31.9992 70.2407 32.2022 70.5212 32.3655C70.6752 32.4534 70.8566 32.4974 71.0105 32.5874C71.2748 32.7582 71.5578 32.8986 71.8541 33.006C72.223 33.1464 72.5736 33.3305 72.898 33.5544C73.565 33.9506 74.2099 34.3824 74.8298 34.8479C75.1124 35.0719 75.3971 35.3126 75.6734 35.547C75.8765 35.6792 76.0945 35.7874 76.323 35.8693C76.4706 35.9426 76.614 36.0179 76.7574 36.0975C77.0969 36.2858 77.4407 36.4721 77.7739 36.671C78.2779 36.9703 78.7693 37.2989 79.2818 37.5815C79.5687 37.7217 79.8637 37.8447 80.1655 37.9499C80.1254 38.1026 80.0937 38.2199 80.0473 38.3894C80.3363 38.4438 80.5978 38.4857 80.8572 38.5443C80.9882 38.5543 81.113 38.6032 81.2157 38.6845C81.4497 38.9245 81.746 39.0955 82.0719 39.1785C82.3432 39.2616 82.592 39.4047 82.7995 39.5971C82.9834 39.7539 83.1992 39.8696 83.4322 39.9362C83.6642 40.0178 83.8076 40.1162 83.8076 40.3904C83.8217 40.4495 83.8499 40.5043 83.8899 40.5502C83.93 40.5962 83.9806 40.6318 84.0375 40.6541C84.5042 40.7779 84.9498 40.9698 85.3598 41.2234C85.4669 41.2624 85.5779 41.2898 85.6909 41.3051C85.7963 41.3427 85.9334 41.372 85.9883 41.4516C86.0437 41.555 86.1204 41.6456 86.2134 41.7177C86.3064 41.7899 86.4136 41.8418 86.5281 41.8702C86.6188 41.889 86.6631 42.1214 86.7011 42.1988L87.4034 42.5505C87.4919 42.5944 87.5826 42.6781 87.6691 42.676C88.0023 42.6635 88.1668 42.8749 88.3376 43.0947C88.4254 43.216 88.5356 43.3197 88.6624 43.4003C88.9872 43.6096 89.3204 43.7917 89.6557 43.9779C90.107 44.227 90.5689 44.4594 91.0139 44.7189C91.1673 44.8161 91.3017 44.9402 91.4104 45.0852C91.5067 45.2209 91.6296 45.336 91.7716 45.4237C91.9136 45.5114 92.0719 45.57 92.2371 45.5959C92.7538 45.6775 92.9984 46.1631 93.4202 46.3892C93.5024 46.4331 93.5214 46.5985 93.5847 46.7304C94.0869 46.7808 94.5494 47.0242 94.8733 47.4085C94.9332 47.4586 94.9999 47.5002 95.0715 47.532C95.5144 47.802 96.0353 47.9904 96.166 48.5974C96.3882 48.6022 96.6068 48.6533 96.8077 48.7474C97.0086 48.8415 97.1874 48.9765 97.3323 49.1437C97.6739 49.5288 98.1759 49.7716 98.5977 50.094C98.7417 50.1796 98.8666 50.2936 98.9646 50.4288C99.049 50.59 99.1207 50.6528 99.302 50.6068C99.3295 50.6068 99.3969 50.7449 99.4665 50.8475L99.6669 50.7449C100.489 51.3331 100.494 51.3393 100.386 51.9798C100.508 51.9589 100.618 51.9484 100.726 51.9212C100.831 51.8884 100.934 51.85 101.036 51.8061C101.08 51.9338 101.124 52.0322 101.152 52.1368C101.179 52.2415 101.181 52.3273 101.2 52.4487C101.276 52.4801 101.411 52.4926 101.455 52.5596C101.698 52.8778 102.063 52.9259 102.409 53.0159C102.513 53.0386 102.61 53.0842 102.694 53.1494C102.778 53.2146 102.846 53.2978 102.894 53.3927C103.016 53.602 103.305 53.7255 103.526 53.8866L103.697 54.0101C103.486 54.5083 102.986 54.3262 102.592 54.4685C102.803 54.772 103.161 54.7448 103.48 54.9416C103.303 54.7322 103.313 54.6255 103.509 54.5334C103.669 54.4411 103.819 54.3346 103.959 54.2152C104.036 54.2661 104.106 54.3259 104.169 54.3932C104.334 54.6025 104.397 54.9436 104.802 54.7846C104.84 54.7699 104.931 54.8746 104.99 54.9311C105.074 55.0336 105.167 55.1295 105.266 55.2178C105.614 55.4648 105.618 55.4585 105.5 55.8709C105.769 55.833 106.042 55.8802 106.282 56.0057C106.522 56.1312 106.715 56.3287 106.835 56.57C106.85 56.5993 106.86 56.6328 106.877 56.66C107.221 57.2126 107.221 57.2126 106.643 57.5516C106.146 57.8426 105.758 57.8321 105.378 57.4114C104.998 56.9907 104.45 56.7102 104.098 56.2267C103.903 56.0237 103.661 55.8707 103.393 55.7809C102.986 55.5988 102.936 55.5695 102.79 55.2911ZM95.6641 48.7397C95.5924 48.949 95.5439 49.0935 95.4954 49.2337C95.7527 49.4304 95.8919 49.2044 96.0543 49.1144C96.0838 49.0997 96.0754 48.926 96.0332 48.9051C95.9167 48.8365 95.793 48.781 95.6641 48.7397ZM77.0548 37.548L77.1349 37.4056L76.7616 37.257L76.7152 37.3491L77.0548 37.548Z" fill="#00354B"/>
<path d="M64.112 51.3622C64.3861 51.5046 64.6076 51.5715 64.7447 51.7013C65.0125 51.9923 65.2276 52.3292 65.4701 52.6411C65.5175 52.725 65.5839 52.7967 65.6642 52.8504C66.3095 53.1393 66.7397 53.6709 67.2079 54.1607C67.4842 54.4495 67.7099 54.8116 68.0367 55.0189C68.3636 55.2261 68.4585 55.5652 68.6694 55.8373C68.7159 55.9217 68.7703 56.0016 68.8318 56.0759C69.1292 56.3375 69.4645 56.5719 69.7366 56.8503C70.0086 57.1287 70.2343 57.4301 70.5 57.7441L70.2068 58.1292C70.8395 57.8404 70.9808 58.3699 71.2107 58.6274C71.4406 58.8848 71.7928 59.0941 71.8202 59.5044C71.8271 59.528 71.8392 59.5498 71.8556 59.5682C71.872 59.5867 71.8923 59.6013 71.9151 59.6111C72.5225 59.8727 72.8051 60.4379 73.1805 60.9214C73.2817 61.0532 73.404 61.1705 73.5137 61.296C73.868 61.7042 74.3151 62.0705 74.5407 62.5393C74.7179 62.914 75.184 63.027 75.2282 63.4603C75.5762 63.5838 75.7344 63.8789 75.8757 64.1824C76.0206 64.5311 76.2693 64.8276 76.5885 65.0322C76.6734 65.0989 76.738 65.1875 76.7752 65.2884C76.8125 65.3892 76.8208 65.4983 76.7994 65.6036C77.023 65.7836 77.2212 65.9532 77.4321 66.1164C77.5397 66.2002 77.6599 66.2692 77.5903 66.4409C77.5865 66.4646 77.5884 66.4888 77.5957 66.5117C77.603 66.5346 77.6156 66.5555 77.6325 66.5727C77.9804 66.9118 78.3474 67.2341 78.6869 67.59C78.9252 67.8453 79.0792 68.1865 79.3407 68.4125C79.4848 68.5274 79.5954 68.6784 79.661 68.8498C79.7266 69.0213 79.7449 69.2071 79.714 69.3879C79.7962 69.3523 79.8447 69.3377 79.8869 69.3147C79.9351 69.2844 79.9816 69.2516 80.0261 69.2163C80.3066 69.5449 80.5913 69.8589 80.857 70.1896C80.9568 70.3037 81.0116 70.4498 81.0116 70.6009C81.0116 70.752 80.9568 70.898 80.857 71.0122C80.7706 71.1315 80.6862 71.2529 80.5829 71.3973C80.1084 71.2352 79.6695 70.9844 79.2901 70.6584C79.1846 70.5684 79.1825 70.357 79.1214 70.1645C78.8577 70.0912 78.5541 69.997 78.7143 69.5596L78.4107 69.6433C78.3305 69.3796 78.2546 69.1179 78.1681 68.8312C77.8307 68.9379 77.6303 68.7181 77.4701 68.5067C77.3684 68.309 77.2817 68.104 77.2107 67.8935C77.1333 67.767 77.0358 67.6539 76.9217 67.5586C76.6054 67.2614 76.6033 67.2655 76.8078 66.8092C76.6391 66.7255 76.4683 66.5727 76.2933 66.5706C76.1737 66.5676 76.0569 66.534 75.9542 66.4732C75.8515 66.4123 75.7664 66.3262 75.707 66.2232C75.3674 65.8046 74.9942 65.3859 74.6525 64.9673C74.3109 64.5487 73.8701 64.1426 73.6233 63.611C73.5072 63.3881 73.4737 63.1318 73.5284 62.8868C73.3175 62.8868 73.0729 62.937 73.0708 62.6272C72.5056 62.4033 72.2061 61.8989 71.8286 61.476C71.4511 61.0532 71.0336 60.6242 70.635 60.1993C70.635 60.1867 70.6054 60.1762 70.6012 60.1637C70.249 59.2239 69.3612 58.7132 68.7896 57.9492C68.4961 57.5943 68.173 57.2645 67.8237 56.9633C67.6771 56.8515 67.579 56.6883 67.5496 56.5071C67.5496 56.4233 67.4441 56.348 67.383 56.2726C66.8904 55.6841 66.3494 55.1373 65.7654 54.6379C65.3996 54.2945 65.0618 53.9229 64.7552 53.5265C64.4051 53.1079 63.9285 52.8211 63.5152 52.4653C63.3087 52.2974 63.1168 52.1125 62.9415 51.9127C62.7306 51.6595 62.5408 51.3853 62.216 51.245C62.1211 51.2032 62.0558 51.0859 61.9862 50.9959C61.8316 50.7739 61.6542 50.5684 61.4568 50.3827C60.7988 49.8259 60.1915 49.221 59.5588 48.6287C59.4426 48.5094 59.3335 48.3836 59.2319 48.2519C59.1328 48.1389 59.0611 47.9819 58.9366 47.9149C58.363 47.6072 57.996 47.1028 57.6101 46.6109C57.5276 46.5277 57.4364 46.4533 57.338 46.3891C56.5156 45.7025 55.6509 45.0579 54.9887 44.206C54.9716 44.1771 54.9477 44.1526 54.9191 44.1348C54.1725 43.758 53.7043 43.0485 53.021 42.5775C52.3884 42.1443 51.8569 41.5875 51.2769 41.0894C50.9523 40.8574 50.6495 40.5968 50.3722 40.3107C50.0158 39.8691 49.4738 39.6409 49.1469 39.1637C48.9757 38.9421 48.7537 38.7642 48.4995 38.6446C47.7761 38.2783 47.3058 37.6378 46.7258 37.1188C46.4509 36.8778 46.1503 36.6673 45.8295 36.4908C45.4297 36.2508 45.0861 35.929 44.8215 35.5469C44.5862 35.2678 44.3202 35.0158 44.0285 34.7954C43.8176 34.628 43.5835 34.5087 43.3705 34.3496C43.2789 34.2664 43.1982 34.1722 43.1301 34.0691C43.1006 34.0335 43.0816 33.9687 43.0478 33.9603C42.5375 33.8431 42.276 33.3847 41.8732 33.1231C41.6053 32.9451 41.3944 32.7044 41.0739 32.5789C40.5825 32.3695 40.2914 31.9132 39.9266 31.549C39.8844 31.5093 39.9266 31.3942 39.9266 31.3146C39.5084 31.2173 39.1271 31.003 38.8278 30.6972C38.5325 30.4312 38.2174 30.1877 37.8851 29.9688C37.5182 29.6841 37.1407 29.4057 36.7948 29.0918C36.5853 28.8724 36.3915 28.6388 36.2148 28.3927L36.5755 27.725C37.0437 27.9803 37.5055 28.1436 37.8535 28.535C38.1418 28.8136 38.46 29.06 38.8025 29.2697C39.4728 29.7404 40.1072 30.2595 40.7006 30.8227C40.8018 30.9232 40.9747 30.9462 41.0907 31.0321C41.5357 31.3732 41.9702 31.7311 42.4109 32.0786C42.7336 32.334 43.0626 32.5789 43.3832 32.8363C44.1086 33.4224 44.8236 34.0189 45.5533 34.5987C46.0214 34.9733 46.5171 35.3124 46.9852 35.6871C47.4452 36.023 47.8774 36.3946 48.278 36.7985C48.6471 37.2171 49.1047 37.483 49.5244 37.8137C49.5371 37.8241 49.556 37.8325 49.5645 37.8451C49.8977 38.4269 50.5683 38.6446 50.9922 39.1344C51.1715 39.3437 51.4478 39.4651 51.6565 39.6514C52.3019 40.2333 53.0295 40.7231 53.5947 41.397C53.8417 41.6313 54.1108 41.8415 54.3982 42.025C54.82 42.3557 55.2418 42.6717 55.634 43.0276C56.5999 43.9025 57.6038 44.7334 58.4706 45.7172C58.8291 46.1253 59.2741 46.4602 59.6727 46.8349C59.8266 46.9793 59.9531 47.153 60.1071 47.2975C60.4867 47.6617 60.8832 48.007 61.2586 48.3754C61.828 48.9363 62.3848 49.514 62.9457 50.0771C63.1566 50.2864 63.4055 50.4559 63.6037 50.6736C63.7853 50.8941 63.9549 51.1239 64.112 51.3622ZM41.5463 31.6872L41.1772 31.8044L41.4788 32.1435C41.5041 31.997 41.5188 31.8902 41.5484 31.6935L41.5463 31.6872ZM66.8853 55.0231C66.9759 55.3998 66.9759 55.3998 67.3555 55.3077L66.8853 55.0231ZM71.7358 60.2558C71.7949 60.0737 71.7864 59.9795 71.6283 59.9627C71.5987 59.9627 71.5608 60.013 71.5292 60.0402L71.7358 60.2558ZM53.9173 42.5629L53.9342 42.4478L53.6917 42.4352V42.5189L53.9173 42.5629Z" fill="#00354B"/>
<path d="M131.038 77.7311C131 77.1827 131.274 76.7431 131.548 76.3392C131.951 75.7468 132.603 75.6652 133.256 75.751C134.024 75.8515 134.551 76.3245 134.943 76.9671C134.963 76.9941 134.977 77.0247 134.984 77.0571C135.03 77.8609 135.055 78.6625 134.458 79.3156C134.354 79.4218 134.225 79.5022 134.083 79.55C133.01 79.9435 131.923 79.506 131.274 78.6772C131.088 78.4448 131.109 78.0513 131.038 77.7311Z" fill="#00354B"/>
<path d="M121.936 70.3907C121.936 69.5744 122.357 69.026 122.954 68.5781C123.117 68.4452 123.319 68.3678 123.53 68.3572C123.74 68.3466 123.949 68.4035 124.125 68.5195C124.257 68.5885 124.399 68.6385 124.546 68.6681C124.903 68.7615 125.222 68.9609 125.462 69.2395C125.587 69.3502 125.679 69.4934 125.727 69.6532C125.775 69.8129 125.778 69.9828 125.734 70.1437C125.544 70.7716 125.346 71.4268 124.713 71.791C124.565 71.9005 124.389 71.9665 124.205 71.9814C123.391 71.9291 122.589 71.7931 122.096 71.0417C122.007 70.8347 121.953 70.6149 121.936 70.3907Z" fill="#00354B"/>
<path d="M115.256 63.067C114.554 63.0565 113.685 62.4516 113.552 61.8111C113.479 61.5108 113.489 61.1964 113.582 60.9015C113.675 60.6067 113.847 60.3423 114.079 60.1366C114.261 59.9634 114.487 59.843 114.734 59.7884C114.98 59.7338 115.236 59.7471 115.475 59.8269C115.834 59.9608 116.201 60.0634 116.483 60.3564C116.928 60.8169 117.116 61.3004 116.854 61.9325C116.618 62.4767 115.823 63.0753 115.256 63.067Z" fill="#00354B"/>
<path d="M94.0215 88.0124C94.0721 87.1751 94.5487 86.4907 95.2869 86.3379C95.3999 86.3093 95.5177 86.3043 95.6327 86.3232C96.3181 86.4865 96.8707 86.8361 97.1596 87.5058C97.2315 87.6456 97.2662 87.8013 97.2603 87.9581C97.2544 88.1149 97.2081 88.2676 97.1258 88.4017C96.8749 88.8203 96.664 89.2033 96.1958 89.4629C95.5758 89.802 95.0507 89.7203 94.5087 89.3833C94.4052 89.3161 94.3201 89.2246 94.2609 89.1169C94.2016 89.0092 94.1701 88.8886 94.1691 88.7659C94.1327 88.5124 94.0834 88.2609 94.0215 88.0124Z" fill="#00354B"/>
<path d="M89.5587 78.9805C90.048 78.9177 90.4023 79.374 90.7102 79.8994C90.7375 79.9416 90.7542 79.9897 90.7587 80.0396C90.7904 80.6173 90.7018 81.1846 90.3138 81.6241C90.1782 81.803 90.0041 81.9496 89.8041 82.0532C89.6042 82.1567 89.3835 82.2147 89.1581 82.2227C88.9317 82.2406 88.7048 82.1964 88.5021 82.0949C88.2993 81.9934 88.1286 81.8385 88.0087 81.6471C87.9391 81.5341 87.8716 81.419 87.7978 81.2997C87.009 79.8303 88.2048 79.0747 89.5587 78.9805Z" fill="#00354B"/>
<path d="M88.7653 137.248C88.8475 137.778 88.5881 138.215 88.2486 138.621C88.0908 138.804 87.8761 138.93 87.6382 138.979C87.4003 139.028 87.1528 138.997 86.9347 138.891C86.5895 138.731 86.3003 138.472 86.1038 138.148C85.6356 137.426 86.2535 136.275 87.0929 136.132C87.4319 136.054 87.787 136.078 88.1115 136.204C88.6303 136.423 88.9002 136.721 88.7653 137.248Z" fill="#00354B"/>
<path d="M39.863 49.5685L39.6816 49.4722C39.6985 49.4471 39.728 49.399 39.7344 49.4011C39.7928 49.4282 39.8498 49.4582 39.9052 49.4911L39.863 49.5685Z" fill="#00354B"/>
</g>
</g>
<defs>
<clipPath id="clip0_190_411">
<rect width="137" height="137" fill="white"/>
</clipPath>
<clipPath id="clip1_190_411">
<rect width="135" height="139" fill="white"/>
</clipPath>
</defs>
</svg>
