<svg xml:space="preserve" style="enable-background:new 0 0 2335.3 495.6;" viewBox="0 0 2335.3 495.6" y="0px" x="0px" xmlns:xlink="http://www.w3.org/1999/xlink" xmlns="http://www.w3.org/2000/svg" id="Layer_1" version="1.1">
<style type="text/css">
	.st0{fill-rule:evenodd;clip-rule:evenodd;fill:#2D4F9E;}
</style>
<path d="M1079.8,108.9c-22-28.5-57.9-40.4-93-30.6c-33.9,7.7-57.5,42.8-65.7,74.2c-16.3,59.5-15.5,131.3-6.9,194.1
	c6.9,38.7,20.8,83.2,62,99.1c30.2,11.8,70.1,7.8,93.4-16.3c38.3-40.3,42-96.2,44.8-150.9c1.2-56.3-2-110.9-26.5-157.4L1079.8,108.9
	L1079.8,108.9z M1044.7,355.6c-4.5,16.3-8.6,38.3-28.5,42.8c-9.8,1.2-20-0.4-26.1-9c-14.7-21.2-15.1-48.5-16.7-75
	c-2.4-56.3-6.1-117,11.4-167.6c4.1-8.6,13-16.7,22.8-17.5c11.8-1.2,22,4.1,27.3,13.9c11.4,20.8,11.8,46.5,14.7,71
	C1052.9,261.4,1052.1,309.9,1044.7,355.6L1044.7,355.6z M325,75.8c-33.8,0.8-64.8,24.1-77.9,54.6c-16.3,39.6-22,84-22.4,129.7
	c1.6,57.9,1.2,117,34.7,161.5c18.8,25.3,46.9,33.8,77.5,30.6c29.8-2,57.5-24.1,69.7-51c19.6-42.8,23.6-93,23.6-143.1
	c-1.2-49.8-4.1-99.1-27.3-139.9C386.2,90.1,357.2,74.2,325,75.8L325,75.8z M354.4,377.6c-3.7,9.8-12.6,21.6-24,22.4
	c-8.2,2-16.3-1.2-22-6.5c-12.2-11.8-13-27.7-16.3-42.8c-6.9-59.1-6.1-121.9,3.3-179.8c4.1-15.9,7.7-37.5,27.7-41.6
	c13-3.3,24.5,5.7,30.2,16.7c14.7,34.7,13.5,75.8,13.9,115.8C365.8,301.8,366.6,342.1,354.4,377.6L354.4,377.6z M591.7,272.8
	C564,243,517.1,228,507.3,185.9c-2-20.4-3.7-46.1,16.7-56.3c5.3-2.9,13-1.6,18.4,0.4c9.4,5.7,13.9,15.9,15.5,26.5
	c3.3,13.4,1.2,30,2.4,44.2h57.9c2-29.4-0.4-58.9-13-83.8c-7.3-13.9-20.8-26.5-35.5-33c-27.3-13.5-66.5-9.4-90.1,9.8
	c-32.2,26.9-40.8,71-31.8,110.5c10.6,46.1,60.3,71,93,102.7c17.9,15.5,24.1,37.1,21.2,60.4c-1.6,14.3-8.1,30.6-23.6,34.3
	c-8.6,1.6-16.7,0-22.4-5.3c-18.8-19.6-14.7-50.6-14.7-77.9c0,0-40.4-0.4-59.9,0c-2.9,36.7,0,75,22.4,104
	c22.4,26.1,56.3,33.4,89.7,27.3c31-5.3,59.1-32.6,65.7-63.2C629.6,347,623.1,301.3,591.7,272.8z M1419.9,77.1
	c-31,1.6-58.7,26.9-69.7,54.6c-20.8,51-22,111.7-19.6,170.4c4.9,55.9,10.6,120.7,69.7,145.6c30.6,10.6,68.9,5.7,92.2-18.4
	c33.8-37.5,39.5-86.8,43.2-137c1.2-56.3-0.8-113.8-22-161.9C1497.8,95,1459.8,70.1,1419.9,77.1L1419.9,77.1z M1465.5,362.9
	c-4.1,13.4-9,30.2-24,35.5c-12.2,3.7-23.7-0.8-31-10.2c-9.8-12.2-9.8-28.1-13-43.2c-8.2-55.4-6.1-115,0.4-171.3
	c2.9-15.9,7.8-32.6,22.9-41.6c9.8-4.5,22.8-2.5,30.6,5.7c15.1,20,15.9,46.1,19.2,71.4C1474.5,259.8,1473.7,313.6,1465.5,362.9
	L1465.5,362.9z M210.4,298.5h-60.8c-2,31.8,0.4,64.8-13.4,91.3c-4.9,9-14.3,11.8-23.7,10.6c-11.4-2.9-17.1-15.1-20.8-25.3
	c-14.7-57.5-13.9-127.2-8.6-188c2.5-19.2,4.5-38.3,18.4-52.6c5.7-3.7,14.3-5.3,20.8-2.4c13,6.1,17.1,20,19.6,32.6
	c3.3,17.9,3.3,37.9,5.3,56.3h60.3c0.4-37.5-4.9-73.8-22-104.4c-18.8-32.2-55.5-46.1-91.7-37.1c-42.4,8.6-61.6,53.4-68.9,90.5
	c0,4.1-2.9,9-0.8,12.2c-0.4,0.4-1.6,0-1.6,1.2c-5.3,32.2-5.3,66.5-4.9,99.1c3.7,50.6,5.7,102,35.5,141.9
	c22,28.1,59.5,34.7,92.6,24.9c53-19.6,63.2-77.5,66.1-128C210.8,313.6,213.3,305.8,210.4,298.5L210.4,298.5z M765.4,293.6l-1.2,2.5
	c-14.9-70.3-29.2-140.7-42.8-211.2h-83.6v359.2H693V197l30.8,153.7c6.4,31.1,12.7,62.2,18.8,93.4h44l49.7-236.5v236.7h54V84.4h-80.9
	L765.4,293.6L765.4,293.6z" class="st0"></path>
<path d="M1238,84.4l-106,0.4v359.5h61.8V318.1h35.3c25.3-0.8,48.1-8.6,65.3-28.5c35.5-36.7,37.9-98.7,21.2-145.2
	C1302.8,113.8,1272.3,85.6,1238,84.4z M1247.8,253.6c-13,15.9-33.2,15.1-52.8,15.1V137c0.8-1.2-0.6-3.3,1.8-2.9
	c22.4-2,46.5,1.6,56.7,23.7C1266.6,185.9,1267.8,228.4,1247.8,253.6z M1620.3,84.4h-61.2v359.7h123.5v-48.1h-62.4V84.4z
	 M1697.8,444.5h60.3V84.4h-60.3V444.5z M1932.7,84.4h-164.1v51.8h53v308.2h58.8V135.5h52.3V84.4z M1964.7,84.4L1906,444.7h59.5
	l16.3-100.5h53.4l17.1,100.3h56.7l-60.3-360.1H1964.7L1964.7,84.4z M1988.3,294.2l18.8-130.3l0.4-1.6
	c6.9,43.6,19.6,131.9,19.6,131.9H1988.3z M2246.2,84.4v219.8c-0.4-0.4-57.3-219.8-57.3-219.8h-67.3v359.9h51V217.3
	c2.5,7.3,59.6,227.1,59.6,227.1h64.6V84.4H2246.2L2246.2,84.4z" class="st0"></path>
</svg>
