<svg width="112" height="20" viewBox="0 0 112 20" fill="none" xmlns="http://www.w3.org/2000/svg">
<g clip-path="url(#clip0_48_6857)">
<path d="M0.5 0.181272C3.62486 0.185341 6.75097 0.138461 9.87432 0.21002C12.282 0.265215 14.1684 1.89984 14.5745 4.1326C15.0341 6.66008 13.7221 8.81817 11.6981 9.39728C11.6467 9.41196 11.6048 9.45964 11.5357 9.50785C13.4649 10.0599 14.6165 11.3363 14.9407 13.2486C15.4754 16.4037 13.7344 18.9963 10.445 19.3631C9.71548 19.4443 8.97471 19.4423 8.23898 19.4461C5.65941 19.4598 3.07966 19.4594 0.500088 19.4643L0.5 0.181272ZM4.6543 15.7829C4.70793 15.8013 4.76147 15.8357 4.81483 15.8357C6.10966 15.8378 7.40679 15.8837 8.69878 15.8225C10.0357 15.7591 10.8308 14.9378 10.8662 13.7275C10.9018 12.5114 10.1675 11.6343 8.85816 11.4772C8.03049 11.3779 7.18511 11.4234 6.34761 11.4116C5.79268 11.4039 5.23747 11.4102 4.6543 11.4102V15.7829ZM4.62598 7.82218C5.83303 7.82218 6.9791 7.82422 8.12517 7.82041C8.3457 7.81962 8.57127 7.82148 8.78577 7.77831C9.59504 7.61591 10.2045 7.20115 10.4164 6.35801C10.7544 5.01377 9.89724 3.85246 8.50578 3.78356C7.85881 3.75162 7.20918 3.77471 6.56079 3.77409C5.93196 3.7733 5.30296 3.77391 4.65457 3.77391C4.64165 3.91314 4.62705 3.99806 4.62696 4.08297C4.62545 5.30408 4.62598 6.52518 4.62598 7.82218ZM75.0111 19.818C74.5225 19.7273 74.029 19.6577 73.5464 19.542C69.7682 18.6368 67.8431 15.3863 68.1731 11.7946C68.4497 8.7873 69.9664 6.58869 72.8552 5.57085C76.8884 4.14975 81.5657 6.06841 82.2557 11.4325C82.3468 12.1412 82.3424 12.8622 82.3857 13.6411H71.9701C72.2116 14.9626 72.8783 15.8897 74.0408 16.3825C75.93 17.1833 77.6998 16.7842 79.3684 15.7107C79.467 15.6473 79.5579 15.5719 79.6538 15.5037C79.6632 15.497 79.6818 15.5028 79.7486 15.5028C80.2591 16.2539 80.7862 17.0295 81.3785 17.9011C80.8413 18.2361 80.3456 18.5992 79.8042 18.8711C78.8083 19.3713 77.7375 19.6365 76.6249 19.7291C76.4982 19.7397 76.3747 19.7874 76.2498 19.8179L75.0111 19.818ZM78.7907 11.1028C78.8632 9.37101 77.2124 8.04845 75.1224 8.13089C73.3839 8.19944 71.8384 9.67105 72.0239 11.1028H78.7907ZM89.9664 19.818C89.3653 19.6971 88.7545 19.6117 88.1648 19.4491C85.3491 18.6726 83.4066 16.2925 83.1511 13.3835C82.9098 10.6396 83.7056 8.31416 85.9092 6.58312C89.2485 3.96002 95.8113 4.55505 97.1149 10.7614C97.2084 11.2061 97.2632 11.6626 97.2914 12.1164C97.3214 12.5982 97.2981 13.0835 97.2981 13.6409H86.9506C87.0407 14.4167 87.3421 15.0405 87.8422 15.5564C88.9867 16.7371 90.4149 16.9593 91.958 16.6886C92.9415 16.516 93.8493 16.1427 94.6662 15.443L96.3319 17.8838C95.8984 18.1739 95.5054 18.4806 95.0738 18.7166C94.0012 19.3032 92.8401 19.6128 91.6245 19.7265C91.4831 19.7397 91.3451 19.7866 91.2055 19.8179C90.7923 19.818 90.3794 19.818 89.9664 19.818ZM86.9753 11.1004H93.7489C93.8359 9.42169 92.2242 8.08834 90.1989 8.12788C88.4016 8.16282 86.8459 9.58356 86.9753 11.1004ZM21.4728 19.818C21.0302 19.7275 20.5846 19.649 20.1453 19.5443C17.4244 18.8961 15.8171 16.8602 15.8147 14.0617C15.8126 11.3793 15.8142 8.69673 15.8142 6.01427V5.53353H19.4922V6.04576C19.4922 8.58094 19.4996 11.116 19.4888 13.6511C19.4838 14.801 19.8357 15.7748 20.9258 16.2752C22.1072 16.8175 23.3171 16.7977 24.4101 16.0196C25.2107 15.4498 25.437 14.5777 25.4386 13.6406C25.4435 11.1202 25.4404 8.59978 25.4404 6.07946V5.52521H29.0784L29.0785 6.02206C29.0785 8.67514 29.0798 11.3281 29.0781 13.9812C29.0762 17.1826 27.0828 19.3833 23.888 19.7188C23.7303 19.7354 23.5759 19.784 23.4199 19.8177C22.7708 19.818 22.1217 19.818 21.4728 19.818ZM56.2009 19.42V0.194275H69.5791V2.05924C69.5791 2.47196 69.5514 2.88708 69.5869 3.29679C69.6221 3.70474 69.4582 3.78391 69.0827 3.78179C66.443 3.76675 63.8032 3.77383 61.1634 3.77383H60.3285V7.82218H60.8267C62.8176 7.82218 64.8086 7.83359 66.7993 7.81281C67.2017 7.80865 67.2959 7.93646 67.2867 8.31637C67.262 9.32935 67.2782 10.3433 67.2782 11.407H60.2985V19.42H56.2009ZM98.2301 19.4125V18.9067C98.2301 14.6041 98.23 10.3018 98.2303 5.99924C98.2303 5.43446 98.2309 5.42951 98.8141 5.4349C100.833 5.45348 102.859 5.3675 104.867 5.52291C107.729 5.74422 109.968 7.03238 111.029 9.85565C112.106 12.7246 111.285 15.9988 109.095 17.7925C107.806 18.8493 106.288 19.3697 104.653 19.4286C102.577 19.5037 100.497 19.4523 98.4188 19.4538C98.3765 19.4539 98.3343 19.436 98.2301 19.4125ZM101.738 16.4617C102.443 16.4617 103.103 16.4619 103.763 16.4617C106.138 16.4609 107.633 15.1231 107.899 12.7609C108.09 11.0649 107.173 9.378 105.711 8.77908C104.424 8.25171 103.079 8.53211 101.738 8.45755C101.738 11.1509 101.738 13.7695 101.738 16.4617ZM36.4927 8.6739H30.2612V5.51911H41.5268C41.5268 6.11432 41.4969 6.71244 41.5356 7.30632C41.5712 7.85376 41.4045 8.27666 41.0588 8.70646C39.1851 11.037 37.341 13.3911 35.4873 15.7375C35.3878 15.8633 35.2932 15.993 35.1383 16.1975H41.6016V19.4129H30.227C30.227 18.5347 30.2141 17.6567 30.2392 16.7798C30.2435 16.6293 30.3949 16.4724 30.5015 16.3368C32.4033 13.9157 34.3089 11.4977 36.2126 9.07805C36.2918 8.97713 36.3594 8.86691 36.4927 8.6739ZM42.6083 8.67744C42.6083 7.68189 42.6074 6.76932 42.6096 5.85665C42.6098 5.75599 42.6265 5.65533 42.6383 5.52477H53.8691C53.8691 6.37295 53.8784 7.20752 53.8593 8.04146C53.8564 8.16715 53.7323 8.29957 53.6436 8.41235C51.7097 10.8653 49.7728 13.3159 47.8375 15.7677C47.742 15.8888 47.6567 16.0181 47.5078 16.2253H48.0716C49.8996 16.2253 51.7278 16.233 53.556 16.2187C53.8956 16.2161 54.0224 16.2995 54.0125 16.6613C53.9876 17.5714 54.0043 18.4827 54.0043 19.421H42.6193C42.6193 18.5121 42.612 17.6183 42.6285 16.725C42.6304 16.613 42.748 16.4961 42.8281 16.3942C44.6851 14.0307 46.5445 11.6691 48.4032 9.30688C48.5451 9.12635 48.6841 8.94342 48.8894 8.67735L42.6083 8.67744Z" fill="#EE3624"/>
</g>
<defs>
<clipPath id="clip0_48_6857">
<rect width="111" height="19.6605" fill="white" transform="translate(0.5 0.169922)"/>
</clipPath>
</defs>
</svg>
