<svg xml:space="preserve" style="enable-background:new 0 0 665.2 338.8;" viewBox="0 0 665.2 338.8" y="0px" x="0px" xmlns:xlink="http://www.w3.org/1999/xlink" xmlns="http://www.w3.org/2000/svg" id="katman_1" version="1.1">
<style type="text/css">
	.st0{fill:#00C4B3;}
</style>
<g id="Layer_2_00000137811866288167053570000011574793091501293703_">
	<g id="Layer_1-2">
		<path d="M122.8,128.4c-0.1,17.5,10.2,25.7,24.1,25.7c18.5,0,25.5-14.3,27.4-28.8l-1.8-0.6c-2,10.5-6.5,16.5-13.5,16.5
			c-6.1,0-9.1-4.4-9.1-12.1V81.3h21.9l0.8-3.8h-22.7V51.1h-1.6c-5.5,15.3-17.9,25.2-33.5,28.5v1.6h8.2L122.8,128.4z M180.4,55.8
			v80.2c0,10-0.4,12-7,16.2v0.3h41.3v-0.3c-6.7-4.3-7.1-6.2-7.1-16.2v-27.1c0-13.7,5.5-20,13-20c7.1,0,10.2,5.6,10.2,12.6v34.6
			c0,10-0.4,12-7,16.2v0.3H265v-0.3c-6.7-4.3-7.1-6.2-7.1-16.2v-33.8c0-14.7-7.6-26.2-23.9-26.2c-12.9,0-22.6,7.6-26.4,21.2V39
			h-36.1v0.3C178.6,42.7,180.4,45.6,180.4,55.8L180.4,55.8z M303.1,154.1c17.3,0,30.9-9.3,35.3-25.5l-1.1-0.4
			c-4.7,9.4-12.8,13.5-22,13.5c-14.5,0-24.4-11.2-24.4-30h48.2c0-20-11.5-35.6-35.9-35.6c-21.7,0-39.8,15.3-39.8,39.1
			C263.4,139.8,281.3,154.1,303.1,154.1z M303.2,78.6c8.6,0,9.8,12.9,9.8,29.9h-22C291.4,90.5,295.3,78.6,303.2,78.6z M160.1,211.2
			c-12.6-3.9-23.5-8.2-23.5-20.4c0-10.5,8.1-16.5,18.2-16.5c15.7,0,25.5,11.4,34.7,27.6h0.3l-0.6-30.6c-2.4,2-5.1,4.3-9.1,4.3
			c-6.1,0-14-4.3-25.3-4.3c-23.2,0-39,12.6-39,32.3c0,21.2,15.3,27.8,30.4,32.6c15,5.1,30,8.6,30,23.2c0,11.7-8.2,18-20.6,18
			c-15,0-30.4-12.8-40.3-32.1h-0.3l2.7,35.2c3.3-2.6,6.6-4.4,10.6-4.4c6.3,0,15,4.4,27.4,4.4c21.8,0,40.6-11.8,40.6-33.2
			C196.3,221.9,176.7,216.4,160.1,211.2L160.1,211.2z M291.6,180.1c0,8.2,6.6,14.5,15.2,14.5c8.8,0,15.5-6.3,15.5-14.5
			c0-8.2-6.7-14.4-15.5-14.4C298.1,165.6,291.6,171.8,291.6,180.1L291.6,180.1z M554.9,262.2v-33.8c0-14.7-7.1-26.2-23.5-26.2
			c-12.8,0-21.4,7.6-25,21.1c-1.5-12.2-8.8-21.1-23.2-21.1c-12.8,0-21.4,7.6-25,21.1c-1.5-12.2-8.8-21.1-23.2-21.1
			c-12.9,0-21.5,7.6-25,21.2c-1.4-12.3-9-21.2-23.2-21.2c-12.9,0-21.4,7.6-24.9,21.2v-19.7h-35.2v0.3c7.1,4.1,8.1,6.2,8.1,16.5v41.7
			c0,10-0.4,12-7.1,16.2c-6.6-4.2-7.1-6.2-7.1-16.2v-58.5H258v0.3c3.1,1.1,5,3.3,5,6.2c0.1,2.6-1.4,5.6-4.8,9l-13.5,12.9
			c-3.9,3.8-6.6,4.4-10.8,4.4H231v-71.3h-36.1v0.3c7.1,3.5,9,6.3,9,16.5v80.2c0,10-0.4,12-7,16.2v0.3h41.3v-0.3
			c-6.7-4.3-7.1-6.2-7.1-16.2v-22.9h2c2.6,0,3.8,1.1,5.3,3.9l12.5,24.7c2.3,4.3,3.1,8.2,2.6,10.8h115.8v-0.3
			c-6.7-4.3-7.1-6.2-7.1-16.2v-27.2c0-13.7,4.7-20,11.8-20c7.1,0,9.3,5.6,9.3,12.6v34.6c0,10-0.4,12-7,16.2v0.3h41.3v-0.3
			c-6.6-4.3-7.1-6.2-7.1-16.2v-27.1c0-13.7,4.8-20,11.8-20c7.1,0,9.4,5.6,9.4,12.6v34.6c0,10-0.4,12-7.1,16.2v0.3h41.4v-0.3
			c-6.7-4.3-7.1-6.2-7.1-16.2v-31.8l0,0c1-10.3,5.5-15.2,11.6-15.2c7.1,0,9.4,5.6,9.4,12.6v34.6c0,10-0.4,12-7.1,16.2v0.3h41.4v-0.3
			c-6.7-4.3-7.1-6.2-7.1-16.2v-32l0,0c1-10.3,5.5-15.2,11.6-15.2c7.1,0,9.4,5.6,9.4,12.6v34.6c0,10-0.4,12-7.1,16.2v0.3h41.4v-0.3
			C555.4,274.2,554.9,272.2,554.9,262.2L554.9,262.2z M293.6,262.2c0,8.6-0.4,11.3-4.6,14.5c-5.6-4.1-9.8-10.3-13.3-16.8l-18.3-35.2
			l8.6-8.3c6.1-5.5,11.2-9,20.4-12c6.4,3.8,7.3,6.1,7.3,16.1L293.6,262.2z" class="st0"></path>
		<path d="M572.8,169c-8.1,0-14.3,5.6-14.3,13.7c0,9,6.6,12.6,12.6,12.6c3.1,0,6.1-0.9,7.9-2.5c0.2,0.9,0.3,1.8,0.3,2.7
			c0,7.7-7.7,13.2-14.3,15l0.9,2.9c15.8-3.2,22.9-15.3,22.9-26C588.9,177.5,583.2,169,572.8,169z"></path>
	</g>
</g>
</svg>
